<svg width="51" height="50" viewBox="0 0 51 50" fill="none" xmlns="http://www.w3.org/2000/svg">
<g clip-path="url(#clip0_100_222)">
<path d="M6.74622 6.24124C6.74622 4.58331 7.40483 2.99328 8.57716 1.82094C9.7495 0.648602 11.3395 -0.0100098 12.9975 -0.0100098L38.0025 -0.0100098C39.6604 -0.0100098 41.2504 0.648602 42.4228 1.82094C43.5951 2.99328 44.2537 4.58331 44.2537 6.24124V43.7487C44.2537 45.4067 43.5951 46.9967 42.4228 48.169C41.2504 49.3414 39.6604 50 38.0025 50H12.9975C11.3395 50 9.7495 49.3414 8.57716 48.169C7.40483 46.9967 6.74622 45.4067 6.74622 43.7487V6.24124ZM12.9975 3.11562C12.1685 3.11562 11.3735 3.44492 10.7873 4.03109C10.2011 4.61726 9.87184 5.41227 9.87184 6.24124V18.7437H41.1281V6.24124C41.1281 5.41227 40.7988 4.61726 40.2126 4.03109C39.6264 3.44492 38.8314 3.11562 38.0025 3.11562H12.9975ZM41.1281 21.8694H31.7512V28.1206H41.1281V21.8694ZM41.1281 31.2462H31.7512V37.4975H41.1281V31.2462ZM41.1281 40.6231H31.7512V46.8744H38.0025C38.8314 46.8744 39.6264 46.5451 40.2126 45.9589C40.7988 45.3727 41.1281 44.5777 41.1281 43.7487V40.6231ZM28.6256 46.8744V40.6231H19.2487V46.8744H28.6256ZM16.1231 46.8744V40.6231H9.87184V43.7487C9.87184 44.5777 10.2011 45.3727 10.7873 45.9589C11.3735 46.5451 12.1685 46.8744 12.9975 46.8744H16.1231ZM9.87184 37.4975H16.1231V31.2462H9.87184V37.4975ZM9.87184 28.1206H16.1231V21.8694H9.87184V28.1206ZM19.2487 21.8694V28.1206H28.6256V21.8694H19.2487ZM28.6256 31.2462H19.2487V37.4975H28.6256V31.2462Z" fill="#516EFF"/>
</g>
<defs>
<clipPath id="clip0_100_222">
<rect width="50.01" height="50.01" fill="white" transform="translate(0.494995 -0.0100098)"/>
</clipPath>
</defs>
</svg>
