<svg width="24" height="24" viewBox="0 0 24 24" fill="none" xmlns="http://www.w3.org/2000/svg">
<path d="M12 12.708L15.246 15.954C15.3393 16.0473 15.454 16.0973 15.59 16.104C15.726 16.1107 15.8473 16.0607 15.954 15.954C16.0607 15.8473 16.114 15.7293 16.114 15.6C16.114 15.4707 16.0607 15.3527 15.954 15.246L12.708 12L15.954 8.754C16.0473 8.66067 16.0973 8.546 16.104 8.41C16.1107 8.274 16.0607 8.15267 15.954 8.046C15.8473 7.93933 15.7293 7.886 15.6 7.886C15.4707 7.886 15.3527 7.93933 15.246 8.046L12 11.292L8.754 8.046C8.66067 7.95267 8.546 7.90267 8.41 7.896C8.274 7.88933 8.15267 7.93933 8.046 8.046C7.93933 8.15267 7.886 8.27067 7.886 8.4C7.886 8.52933 7.93933 8.64733 8.046 8.754L11.292 12L8.046 15.246C7.95267 15.3393 7.90267 15.4543 7.896 15.591C7.88933 15.7263 7.93933 15.8473 8.046 15.954C8.15267 16.0607 8.27067 16.114 8.4 16.114C8.52933 16.114 8.64733 16.0607 8.754 15.954L12 12.708ZM12.003 21C10.7583 21 9.58833 20.764 8.493 20.292C7.39767 19.8193 6.44467 19.178 5.634 18.368C4.82333 17.558 4.18167 16.606 3.709 15.512C3.23633 14.418 3 13.2483 3 12.003C3 10.7577 3.23633 9.58767 3.709 8.493C4.181 7.39767 4.82133 6.44467 5.63 5.634C6.43867 4.82333 7.391 4.18167 8.487 3.709C9.583 3.23633 10.753 3 11.997 3C13.241 3 14.411 3.23633 15.507 3.709C16.6023 4.181 17.5553 4.82167 18.366 5.631C19.1767 6.44033 19.8183 7.39267 20.291 8.488C20.7637 9.58333 21 10.753 21 11.997C21 13.241 20.764 14.411 20.292 15.507C19.82 16.603 19.1787 17.556 18.368 18.366C17.5573 19.176 16.6053 19.8177 15.512 20.291C14.4187 20.7643 13.249 21.0007 12.003 21ZM12 20C14.2333 20 16.125 19.225 17.675 17.675C19.225 16.125 20 14.2333 20 12C20 9.76667 19.225 7.875 17.675 6.325C16.125 4.775 14.2333 4 12 4C9.76667 4 7.875 4.775 6.325 6.325C4.775 7.875 4 9.76667 4 12C4 14.2333 4.775 16.125 6.325 17.675C7.875 19.225 9.76667 20 12 20Z" fill="#A7A7A7"/>
</svg>
