<svg width="27" height="22" viewBox="0 0 27 22" fill="none" xmlns="http://www.w3.org/2000/svg">
<path d="M23.7 0.75H3.3C1.8975 0.75 0.76275 1.8975 0.76275 3.3L0.75 18.6C0.75 20.0025 1.8975 21.15 3.3 21.15H23.7C25.1025 21.15 26.25 20.0025 26.25 18.6V3.3C26.25 1.8975 25.1025 0.75 23.7 0.75ZM23.19 6.16875L14.1757 11.8042C13.7677 12.0592 13.2323 12.0592 12.8243 11.8042L3.81 6.16875C3.68215 6.09698 3.5702 6.00002 3.48091 5.88373C3.39162 5.76744 3.32685 5.63424 3.29053 5.4922C3.25421 5.35015 3.24709 5.20222 3.2696 5.05734C3.29211 4.91247 3.34378 4.77366 3.42148 4.64933C3.49919 4.52501 3.60131 4.41774 3.72168 4.33402C3.84204 4.2503 3.97814 4.19188 4.12173 4.16228C4.26533 4.13268 4.41344 4.13253 4.55709 4.16183C4.70075 4.19113 4.83697 4.24928 4.9575 4.33275L13.5 9.675L22.0425 4.33275C22.163 4.24928 22.2993 4.19113 22.4429 4.16183C22.5866 4.13253 22.7347 4.13268 22.8783 4.16228C23.0219 4.19188 23.158 4.2503 23.2783 4.33402C23.3987 4.41774 23.5008 4.52501 23.5785 4.64933C23.6562 4.77366 23.7079 4.91247 23.7304 5.05734C23.7529 5.20222 23.7458 5.35015 23.7095 5.4922C23.6731 5.63424 23.6084 5.76744 23.5191 5.88373C23.4298 6.00002 23.3178 6.09698 23.19 6.16875Z" fill="white"/>
</svg>
