<svg width="48" height="49" viewBox="0 0 48 49" fill="none" xmlns="http://www.w3.org/2000/svg">
<path d="M10.4385 40.26C9.53101 40.26 8.77387 39.9567 8.16711 39.3499C7.56035 38.7431 7.25632 37.9853 7.255 37.0765V7.75503C7.255 7.47529 7.34956 7.24152 7.53868 7.05371C7.7278 6.86591 7.96223 6.77135 8.24197 6.77003C8.52171 6.76872 8.75549 6.86328 8.94329 7.05371C9.1311 7.24415 9.225 7.47792 9.225 7.75503V37.0785C9.225 37.3805 9.35108 37.6583 9.60324 37.9118C9.8554 38.1653 10.1332 38.2913 10.4366 38.29H39.76C40.0397 38.29 40.2735 38.3846 40.4613 38.5737C40.6491 38.7628 40.7437 38.9973 40.745 39.277C40.7463 39.5567 40.6518 39.7905 40.4613 39.9783C40.2709 40.1661 40.0371 40.26 39.76 40.26H10.4385ZM16.3485 33.365C15.9401 33.365 15.598 33.2271 15.3222 32.9513C15.0464 32.6755 14.9085 32.3341 14.9085 31.9269V20.4064C14.9085 19.9992 15.0464 19.6578 15.3222 19.382C15.598 19.1062 15.9394 18.9683 16.3466 18.9683H17.2567C17.7072 18.9683 18.0854 19.1213 18.3914 19.4273C18.6961 19.7346 18.8485 20.1155 18.8485 20.5699V31.7772C18.8485 32.2316 18.6955 32.6092 18.3894 32.91C18.0848 33.212 17.7072 33.3631 17.2567 33.3631L16.3485 33.365ZM25.2135 33.365C24.8051 33.365 24.463 33.2271 24.1872 32.9513C23.9114 32.6755 23.7735 32.3341 23.7735 31.9269V10.71C23.7735 10.2596 23.9258 9.88198 24.2305 9.57728C24.5352 9.27259 24.9128 9.11959 25.3632 9.11827H26.2734C26.6805 9.11827 27.022 9.25617 27.2978 9.53197C27.5736 9.80777 27.7115 10.1499 27.7115 10.5583V31.7752C27.7115 32.2257 27.5598 32.6033 27.2564 32.908C26.9504 33.2127 26.5722 33.365 26.1217 33.365H25.2135ZM34.0785 33.365C33.6701 33.365 33.328 33.2271 33.0522 32.9513C32.7764 32.6755 32.6385 32.3341 32.6385 31.9269V28.44C32.6385 27.9896 32.7908 27.612 33.0955 27.3073C33.4002 27.0026 33.7778 26.8496 34.2282 26.8483H35.1384C35.5455 26.8483 35.887 26.9862 36.1628 27.262C36.4386 27.5378 36.5765 27.8799 36.5765 28.2883V31.7752C36.5765 32.2257 36.4248 32.6033 36.1214 32.908C35.818 33.2127 35.4398 33.365 34.9867 33.365H34.0785Z" fill="#F47170"/>
</svg>
