<svg width="147" height="58" viewBox="0 0 147 58" fill="none" xmlns="http://www.w3.org/2000/svg">
<path d="M27.8099 51.5735L51.2469 31.1095C51.6301 30.7749 51.6695 30.1931 51.3349 29.8098L30.6452 6.11422C30.3106 5.73101 29.7287 5.6916 29.3455 6.0262L5.90842 26.4902C5.52522 26.8248 5.48581 27.4067 5.8204 27.7899L26.5102 51.4855C26.8448 51.8687 27.4267 51.9081 27.8099 51.5735Z" fill="#052541" stroke="white" stroke-width="0.460564"/>
<path d="M14.1926 42.0686L41.0775 43.8644C41.5088 43.8933 41.8818 43.567 41.9107 43.1356L43.7263 15.9544C43.7551 15.5231 43.4288 15.1501 42.9975 15.1213L16.1126 13.3254C15.6813 13.2966 15.3083 13.6229 15.2795 14.0542L13.4638 41.2354C13.435 41.6667 13.7613 42.0398 14.1926 42.0686Z" fill="#FB9F28" stroke="white" stroke-width="0.460564"/>
<path d="M27.3538 27.2464L25.9611 30.0614H25.2757L23.8904 27.2464V30.4888H22.026V30.1719H22.7408V25.3378H24.2957L25.6221 28.1675L26.9559 25.3378H28.5034V30.1719H29.2182V30.4888H27.3538V27.2464ZM35.3794 30.1719V30.4888H33.4414L32.9624 29.376H30.8032L30.3243 30.4888H28.3862V30.1719H29.2336L31.3264 25.3378H32.4392L34.5246 30.1719H35.3794ZM31.8865 26.8706L31.238 28.3665H32.5276L31.8865 26.8706Z" fill="white"/>
<path d="M66.7772 23.7962L65.2104 26.963H64.4394L62.8808 23.7962V27.4438H60.7834V27.0874H61.5876V21.649H63.3368L64.829 24.8325L66.3296 21.649H68.0705V27.0874H68.8746V27.4438H66.7772V23.7962ZM71.5034 27.0874V27.4438H68.7843V27.0874H69.4972V21.649H70.7905V27.0874H71.5034ZM77.606 27.0874V27.4438H71.5045V27.0874H73.2869C72.8447 26.8276 72.4965 26.4767 72.2423 26.0345C71.9936 25.5869 71.8692 25.0812 71.8692 24.5174C71.8692 23.6663 72.1622 22.9534 72.748 22.3786C73.3394 21.8038 74.0606 21.5164 74.9117 21.5164C75.8623 21.5164 76.6582 21.8784 77.2993 22.6024L76.4951 23.5143C76.0862 23.0059 75.5777 22.7516 74.9698 22.7516C74.4834 22.7516 74.0661 22.9119 73.7179 23.2325C73.3753 23.5475 73.204 23.9758 73.204 24.5174C73.204 25.0535 73.367 25.4846 73.6931 25.8107C74.0192 26.1368 74.4143 26.2998 74.8786 26.2998C75.5141 26.2998 76.0337 26.0483 76.4371 25.5454L77.2661 26.3993C77.023 26.6812 76.7494 26.9105 76.4454 27.0874H77.606ZM83.9258 27.0874V27.4438H81.9196V25.1641H79.615V27.4438H77.6087V27.0874H78.3217V21.649H79.615V24.0698H81.9196V21.649H83.2129V27.0874H83.9258ZM84.6365 27.0874V21.649H88.8147V22.8014H85.9297V23.9951H88.5245V25.0977H85.9297V26.2998H88.9059V27.0874H89.71V27.4438H83.8323V27.0874H84.6365ZM96.3695 27.0874V27.4438H94.1892L93.6503 26.192H91.2213L90.6824 27.4438H88.5021V27.0874H89.4555L91.8099 21.649H93.0617L95.4078 27.0874H96.3695ZM92.4399 23.3734L91.7104 25.0563H93.1612L92.4399 23.3734ZM100.806 27.0874V27.4438H95.4337V27.0874H96.2378V21.649H97.5311V26.2915H100.002V27.0874H100.806ZM102.425 27.0874V27.4438H100.237V27.0874H102.425ZM109.444 27.0874V27.4438H107.264L106.725 26.192H104.296L103.757 27.4438H101.577V27.0874H102.53L104.885 21.649H106.137L108.483 27.0874H109.444ZM105.515 23.3734L104.785 25.0563H106.236L105.515 23.3734ZM113.88 27.0874V27.4438H108.508V27.0874H109.313V21.649H110.606V26.2915H113.076V27.0874H113.88ZM120.333 27.0874V27.4438H118.153L117.614 26.192H115.185L114.646 27.4438H112.466V27.0874H113.419L115.774 21.649H117.025L119.372 27.0874H120.333ZM116.404 23.3734L115.674 25.0563H117.125L116.404 23.3734ZM125.706 27.0874V27.4438H119.489V27.0874H121.288C120.845 26.8276 120.497 26.4767 120.243 26.0345C119.994 25.5869 119.87 25.0812 119.87 24.5174C119.87 23.6663 120.163 22.9534 120.749 22.3786C121.34 21.8038 122.05 21.5164 122.879 21.5164C123.714 21.5164 124.438 21.79 125.051 22.3371L124.38 23.3071C124.12 23.0805 123.88 22.9257 123.659 22.8428C123.443 22.7544 123.208 22.7102 122.954 22.7102C122.462 22.7102 122.047 22.8787 121.71 23.2159C121.373 23.5475 121.205 23.9869 121.205 24.534C121.205 25.0812 121.365 25.5205 121.685 25.8521C122.012 26.1782 122.398 26.3413 122.846 26.3413C123.294 26.3413 123.667 26.2556 123.965 26.0843V24.4926H125.267V26.5485C125.079 26.7585 124.855 26.9381 124.595 27.0874H125.706ZM131.559 27.0874V27.4438H125.615V27.0874H126.419V21.649H128.674C129.066 21.649 129.404 21.696 129.685 21.79C129.973 21.8839 130.188 22.011 130.332 22.1713C130.592 22.4698 130.722 22.8069 130.722 23.1827C130.722 23.6359 130.575 23.973 130.282 24.1941C130.183 24.2715 130.114 24.3212 130.075 24.3433C130.036 24.3599 129.967 24.3903 129.868 24.4345C130.227 24.5119 130.512 24.6749 130.722 24.9236C130.937 25.1668 131.045 25.4708 131.045 25.8356C131.045 26.3827 130.829 26.8 130.398 27.0874H131.559ZM127.712 26.3495H128.599C128.97 26.3495 129.246 26.3053 129.428 26.2169C129.616 26.123 129.71 25.9433 129.71 25.678C129.71 25.4072 129.611 25.2304 129.412 25.1475C129.218 25.059 128.906 25.0148 128.475 25.0148H127.712V26.3495ZM127.712 23.9951H128.326C128.685 23.9951 128.95 23.9565 129.122 23.8791C129.299 23.8017 129.387 23.6359 129.387 23.3817C129.387 23.1219 129.307 22.9506 129.147 22.8677C128.986 22.7848 128.715 22.7433 128.334 22.7433H127.712V23.9951ZM132.272 27.0874V21.649H136.451V22.8014H133.566V23.9951H136.161V25.0977H133.566V26.2998H136.542V27.0874H137.346V27.4438H131.468V27.0874H132.272Z" fill="#052541"/>
<path d="M64.4449 36.7466H63.8204L63.4722 35.7905H61.9413L61.5931 36.7466H60.9852L62.3613 33.0989H63.0688L64.4449 36.7466ZM62.1071 35.3096H63.3064L62.7095 33.6074L62.1071 35.3096ZM66.1433 33.9279C66.3644 33.9279 66.5523 33.9611 66.707 34.0274C66.8654 34.0901 66.9981 34.1803 67.1049 34.2982C67.2118 34.4161 67.2928 34.5506 67.3481 34.7017L66.7899 34.9227C66.742 34.7533 66.6646 34.6243 66.5578 34.5359C66.4546 34.4438 66.3183 34.3977 66.1488 34.3977C65.983 34.3977 65.8412 34.4364 65.7232 34.5138C65.6053 34.5875 65.5151 34.6962 65.4524 34.8398C65.3935 34.9835 65.364 35.1604 65.364 35.3704C65.364 35.5768 65.3953 35.7518 65.458 35.8955C65.5206 36.0392 65.6109 36.1478 65.7288 36.2215C65.8467 36.2952 65.9867 36.3321 66.1488 36.3321C66.2741 36.3321 66.3828 36.3118 66.4749 36.2713C66.567 36.2271 66.6425 36.1663 66.7015 36.0889C66.7641 36.0078 66.8065 35.9102 66.8286 35.796L67.3647 35.9784C67.3131 36.1442 67.2321 36.2897 67.1215 36.415C67.0147 36.5366 66.8802 36.6324 66.7181 36.7024C66.5559 36.7687 66.3699 36.8018 66.1599 36.8018C65.8872 36.8018 65.6459 36.7447 65.4359 36.6305C65.2258 36.5163 65.0619 36.3523 64.944 36.1386C64.8298 35.9213 64.7726 35.6633 64.7726 35.3649C64.7726 35.0664 64.8298 34.8104 64.944 34.5967C65.0619 34.3793 65.224 34.2135 65.4303 34.0993C65.6403 33.985 65.878 33.9279 66.1433 33.9279ZM69.2467 33.9279C69.4678 33.9279 69.6557 33.9611 69.8104 34.0274C69.9689 34.0901 70.1015 34.1803 70.2083 34.2982C70.3152 34.4161 70.3963 34.5506 70.4515 34.7017L69.8933 34.9227C69.8454 34.7533 69.768 34.6243 69.6612 34.5359C69.558 34.4438 69.4217 34.3977 69.2522 34.3977C69.0864 34.3977 68.9446 34.4364 68.8267 34.5138C68.7088 34.5875 68.6185 34.6962 68.5558 34.8398C68.4969 34.9835 68.4674 35.1604 68.4674 35.3704C68.4674 35.5768 68.4987 35.7518 68.5614 35.8955C68.624 36.0392 68.7143 36.1478 68.8322 36.2215C68.9501 36.2952 69.0901 36.3321 69.2522 36.3321C69.3775 36.3321 69.4862 36.3118 69.5783 36.2713C69.6704 36.2271 69.7459 36.1663 69.8049 36.0889C69.8675 36.0078 69.9099 35.9102 69.932 35.796L70.4681 35.9784C70.4165 36.1442 70.3355 36.2897 70.2249 36.415C70.1181 36.5366 69.9836 36.6324 69.8215 36.7024C69.6594 36.7687 69.4733 36.8018 69.2633 36.8018C68.9906 36.8018 68.7493 36.7447 68.5393 36.6305C68.3292 36.5163 68.1653 36.3523 68.0474 36.1386C67.9332 35.9213 67.8761 35.6633 67.8761 35.3649C67.8761 35.0664 67.9332 34.8104 68.0474 34.5967C68.1653 34.3793 68.3274 34.2135 68.5337 34.0993C68.7438 33.985 68.9814 33.9279 69.2467 33.9279ZM72.3556 33.9279C72.6246 33.9279 72.8622 33.985 73.0686 34.0993C73.2749 34.2135 73.4352 34.3793 73.5494 34.5967C73.6673 34.8104 73.7263 35.0664 73.7263 35.3649C73.7263 35.6633 73.6673 35.9213 73.5494 36.1386C73.4352 36.3523 73.2749 36.5163 73.0686 36.6305C72.8622 36.7447 72.6246 36.8018 72.3556 36.8018C72.0867 36.8018 71.849 36.7447 71.6427 36.6305C71.4363 36.5163 71.2742 36.3523 71.1563 36.1386C71.0384 35.9213 70.9795 35.6633 70.9795 35.3649C70.9795 35.0664 71.0384 34.8104 71.1563 34.5967C71.2742 34.3793 71.4363 34.2135 71.6427 34.0993C71.849 33.985 72.0867 33.9279 72.3556 33.9279ZM72.3556 34.3922C72.1898 34.3922 72.048 34.4309 71.9301 34.5082C71.8158 34.5819 71.7274 34.6906 71.6648 34.8343C71.6021 34.978 71.5708 35.1549 71.5708 35.3649C71.5708 35.5712 71.6021 35.7481 71.6648 35.8955C71.7274 36.0392 71.8158 36.1497 71.9301 36.2271C72.048 36.3008 72.1898 36.3376 72.3556 36.3376C72.5214 36.3376 72.6614 36.3008 72.7757 36.2271C72.8899 36.1497 72.9783 36.0392 73.0409 35.8955C73.1036 35.7481 73.1349 35.5712 73.1349 35.3649C73.1349 35.1549 73.1036 34.978 73.0409 34.8343C72.9783 34.6906 72.8899 34.5819 72.7757 34.5082C72.6614 34.4309 72.5214 34.3922 72.3556 34.3922ZM75.454 36.8018C75.2734 36.8018 75.1058 36.7687 74.951 36.7024C74.8 36.636 74.6784 36.5292 74.5863 36.3818C74.4942 36.2344 74.4481 36.0428 74.4481 35.807V33.9832H75.0395V35.6578C75.0395 35.9084 75.0929 36.0815 75.1997 36.1773C75.3066 36.2694 75.4558 36.3155 75.6474 36.3155C75.7395 36.3155 75.828 36.3008 75.9127 36.2713C76.0011 36.2381 76.0803 36.1884 76.1504 36.1221C76.2204 36.0521 76.2738 35.9636 76.3106 35.8568C76.3512 35.7499 76.3714 35.6246 76.3714 35.481V33.9832H76.9628V36.7466H76.4433L76.4156 36.2989C76.3198 36.4721 76.1909 36.5992 76.0288 36.6803C75.8666 36.7613 75.6751 36.8018 75.454 36.8018ZM77.8867 36.7466V33.9832H78.4117L78.4504 34.7017L78.373 34.6243C78.4246 34.4659 78.4983 34.3351 78.5941 34.2319C78.6936 34.1251 78.8096 34.0477 78.9423 33.9998C79.0786 33.9519 79.2223 33.9279 79.3734 33.9279C79.5686 33.9279 79.7437 33.9666 79.8984 34.044C80.0568 34.1177 80.1821 34.2301 80.2742 34.3811C80.3663 34.5322 80.4124 34.7238 80.4124 34.9559V36.7466H79.821V35.1383C79.821 34.8656 79.7639 34.6777 79.6497 34.5746C79.5392 34.4677 79.3992 34.4143 79.2297 34.4143C79.1081 34.4143 78.9902 34.4438 78.876 34.5027C78.7617 34.558 78.6659 34.6483 78.5886 34.7735C78.5149 34.8988 78.478 35.0664 78.478 35.2765V36.7466H77.8867ZM82.083 33.1708V35.9176C82.083 36.0539 82.118 36.1534 82.188 36.216C82.2617 36.2786 82.3594 36.31 82.481 36.31C82.5804 36.31 82.667 36.2952 82.7407 36.2658C82.8144 36.2326 82.8826 36.1884 82.9452 36.1331L83.0779 36.5642C82.9931 36.6379 82.8881 36.6968 82.7628 36.7411C82.6412 36.7816 82.5049 36.8018 82.3538 36.8018C82.1954 36.8018 82.0499 36.7761 81.9172 36.7245C81.7846 36.6729 81.6814 36.59 81.6077 36.4758C81.534 36.3579 81.4954 36.205 81.4917 36.017V33.3366L82.083 33.1708ZM83.0336 33.9832V34.4474H80.9611V33.9832H83.0336ZM83.917 33.519C83.788 33.519 83.6885 33.4876 83.6185 33.425C83.5522 33.3587 83.519 33.2666 83.519 33.1487C83.519 33.0308 83.5522 32.9405 83.6185 32.8778C83.6885 32.8152 83.788 32.7839 83.917 32.7839C84.0422 32.7839 84.138 32.8152 84.2044 32.8778C84.2744 32.9405 84.3094 33.0308 84.3094 33.1487C84.3094 33.2666 84.2744 33.3587 84.2044 33.425C84.138 33.4876 84.0422 33.519 83.917 33.519ZM84.2099 33.9832V36.7466H83.6185V33.9832H84.2099ZM85.1351 36.7466V33.9832H85.6602L85.6989 34.7017L85.6215 34.6243C85.6731 34.4659 85.7468 34.3351 85.8426 34.2319C85.9421 34.1251 86.0581 34.0477 86.1908 33.9998C86.3271 33.9519 86.4708 33.9279 86.6218 33.9279C86.8171 33.9279 86.9921 33.9666 87.1469 34.044C87.3053 34.1177 87.4306 34.2301 87.5227 34.3811C87.6148 34.5322 87.6609 34.7238 87.6609 34.9559V36.7466H87.0695V35.1383C87.0695 34.8656 87.0124 34.6777 86.8982 34.5746C86.7876 34.4677 86.6476 34.4143 86.4781 34.4143C86.3566 34.4143 86.2387 34.4438 86.1244 34.5027C86.0102 34.558 85.9144 34.6483 85.837 34.7735C85.7634 34.8988 85.7265 35.0664 85.7265 35.2765V36.7466H85.1351ZM90.9888 33.4029L91.0827 33.8671C91.0717 33.8671 91.0606 33.8671 91.0496 33.8671C91.0385 33.8635 91.0275 33.8616 91.0164 33.8616C90.8395 33.8616 90.7051 33.9003 90.6129 33.9777C90.5208 34.0514 90.4748 34.1601 90.4748 34.3038L90.1874 34.1711C90.1874 34.0237 90.2187 33.8929 90.2813 33.7787C90.344 33.6608 90.4324 33.5687 90.5466 33.5024C90.6645 33.436 90.7972 33.4029 90.9446 33.4029C90.9519 33.4029 90.9593 33.4029 90.9667 33.4029C90.974 33.4029 90.9814 33.4029 90.9888 33.4029ZM90.1155 36.3155C90.3956 36.3155 90.6129 36.3781 90.7677 36.5034C90.9224 36.625 90.9998 36.7945 90.9998 37.0119C90.9998 37.2035 90.939 37.3674 90.8174 37.5037C90.6958 37.6438 90.53 37.7506 90.32 37.8243C90.1137 37.898 89.876 37.9348 89.6071 37.9348C89.1539 37.9348 88.8186 37.8648 88.6012 37.7248C88.3838 37.5848 88.2751 37.4098 88.2751 37.1998C88.2751 37.0524 88.3267 36.9234 88.4299 36.8129C88.5367 36.7024 88.7154 36.6397 88.966 36.625L88.9328 36.7134C88.7781 36.6803 88.6528 36.6213 88.557 36.5366C88.4649 36.4481 88.4188 36.3247 88.4188 36.1663C88.4188 36.0078 88.4796 35.8734 88.6012 35.7628C88.7228 35.6523 88.8941 35.5878 89.1152 35.5694L89.4247 35.7186H89.3584C89.1889 35.7333 89.0691 35.772 88.9991 35.8347C88.9291 35.8973 88.8941 35.9673 88.8941 36.0447C88.8941 36.1368 88.9273 36.205 88.9936 36.2492C89.0636 36.2934 89.1612 36.3155 89.2865 36.3155H90.1155ZM89.6071 37.4927C89.8097 37.4927 89.9755 37.4724 90.1045 37.4319C90.2371 37.3951 90.3348 37.3453 90.3974 37.2827C90.4637 37.2237 90.4969 37.1574 90.4969 37.0837C90.4969 36.999 90.4619 36.9308 90.3919 36.8792C90.3256 36.8276 90.204 36.8018 90.0271 36.8018H89.1373C89.0341 36.8018 88.9475 36.8276 88.8775 36.8792C88.8075 36.9345 88.7725 37.0082 88.7725 37.1003C88.7725 37.2219 88.8462 37.3177 88.9936 37.3877C89.141 37.4577 89.3455 37.4927 89.6071 37.4927ZM89.585 33.9279C89.8281 33.9279 90.0382 33.9666 90.215 34.044C90.3956 34.1214 90.5337 34.2301 90.6295 34.3701C90.729 34.5101 90.7787 34.674 90.7787 34.862C90.7787 35.0499 90.729 35.2138 90.6295 35.3538C90.5337 35.4938 90.3956 35.6025 90.215 35.6799C90.0382 35.7573 89.8281 35.796 89.585 35.796C89.2018 35.796 88.907 35.7112 88.7007 35.5417C88.498 35.3686 88.3967 35.142 88.3967 34.862C88.3967 34.674 88.4465 34.5101 88.5459 34.3701C88.6454 34.2301 88.7836 34.1214 88.9604 34.044C89.141 33.9666 89.3492 33.9279 89.585 33.9279ZM89.585 34.3424C89.4155 34.3424 89.2736 34.3903 89.1594 34.4861C89.0489 34.5782 88.9936 34.7035 88.9936 34.862C88.9936 35.0204 89.0489 35.1475 89.1594 35.2433C89.2736 35.3391 89.4155 35.387 89.585 35.387C89.7581 35.387 89.9 35.3391 90.0105 35.2433C90.1247 35.1475 90.1819 35.0204 90.1819 34.862C90.1819 34.7035 90.1247 34.5782 90.0105 34.4861C89.9 34.3903 89.7581 34.3424 89.585 34.3424ZM94.3061 36.8018C94.0593 36.8018 93.8456 36.7613 93.665 36.6803C93.4882 36.5955 93.35 36.4795 93.2505 36.3321C93.1547 36.1847 93.1068 36.0115 93.1068 35.8126C93.1068 35.6983 93.1216 35.5896 93.151 35.4865C93.1842 35.3796 93.2358 35.2783 93.3058 35.1825C93.3795 35.083 93.4789 34.9928 93.6042 34.9117C93.7295 34.827 93.8861 34.7533 94.074 34.6906L94.2895 34.5967C94.4369 34.5119 94.5548 34.4346 94.6433 34.3645C94.7354 34.2945 94.8017 34.2209 94.8422 34.1435C94.8864 34.0661 94.9085 33.9758 94.9085 33.8727C94.9085 33.7511 94.8717 33.6571 94.798 33.5908C94.7243 33.5245 94.6267 33.4913 94.5051 33.4913C94.3614 33.4913 94.2527 33.5318 94.179 33.6129C94.109 33.6903 94.074 33.7842 94.074 33.8948C94.074 33.9611 94.0832 34.0256 94.1016 34.0882C94.1237 34.1508 94.1643 34.2282 94.2232 34.3203C94.2859 34.4124 94.3761 34.534 94.494 34.6851C94.6119 34.8325 94.7722 35.0278 94.9749 35.2709C95.1738 35.5104 95.3396 35.7057 95.4723 35.8568C95.6086 36.0042 95.7247 36.1165 95.8205 36.1939C95.9163 36.2676 96.0047 36.3173 96.0857 36.3431C96.1705 36.3652 96.2644 36.3744 96.3676 36.3708L96.2681 36.8018C96.1502 36.8018 96.0397 36.789 95.9365 36.7632C95.837 36.7411 95.7283 36.6895 95.6104 36.6084C95.4962 36.5274 95.3599 36.4058 95.2015 36.2436C95.0467 36.0815 94.8551 35.866 94.6267 35.597C94.413 35.3465 94.2343 35.1365 94.0906 34.967C93.9506 34.7938 93.84 34.6483 93.759 34.5303C93.6816 34.4088 93.6263 34.3001 93.5932 34.2043C93.56 34.1048 93.5434 33.9998 93.5434 33.8892C93.5434 33.7529 93.5784 33.6203 93.6484 33.4913C93.7184 33.3587 93.8234 33.2518 93.9635 33.1708C94.1072 33.086 94.2932 33.0436 94.5217 33.0436C94.7059 33.0436 94.8625 33.0768 94.9914 33.1431C95.1204 33.2095 95.2199 33.3016 95.2899 33.4195C95.3599 33.5337 95.3949 33.6663 95.3949 33.8174C95.3949 33.9574 95.3691 34.0882 95.3175 34.2098C95.2659 34.3314 95.1738 34.4474 95.0412 34.558C94.9122 34.6685 94.728 34.7772 94.4885 34.8841L94.3061 34.9614C94.1366 35.0462 94.004 35.1272 93.9082 35.2046C93.8124 35.282 93.7442 35.3649 93.7037 35.4533C93.6632 35.5381 93.6429 35.6412 93.6429 35.7628C93.6429 35.8881 93.6742 35.9968 93.7369 36.0889C93.8032 36.1773 93.8916 36.2455 94.0021 36.2934C94.1127 36.3413 94.2361 36.3652 94.3724 36.3652C94.5677 36.3652 94.7335 36.3321 94.8699 36.2658C95.0062 36.1957 95.1333 36.1 95.2512 35.9784L95.3286 35.8955C95.417 35.7554 95.4852 35.597 95.5331 35.4202C95.5846 35.2433 95.6012 35.0425 95.5828 34.8177L96.0415 34.8454C96.0489 35.0812 96.0176 35.3096 95.9476 35.5307C95.8812 35.7518 95.7781 35.9507 95.6381 36.1276L95.5275 36.2492C95.3949 36.4187 95.2272 36.5531 95.0246 36.6526C94.822 36.7521 94.5825 36.8018 94.3061 36.8018ZM101.337 33.6074H99.2917V34.6685H100.894V35.177H99.2917V36.7466H98.7003V33.0989H101.337V33.6074ZM102.295 33.519C102.166 33.519 102.066 33.4876 101.996 33.425C101.93 33.3587 101.897 33.2666 101.897 33.1487C101.897 33.0308 101.93 32.9405 101.996 32.8778C102.066 32.8152 102.166 32.7839 102.295 32.7839C102.42 32.7839 102.516 32.8152 102.582 32.8778C102.652 32.9405 102.687 33.0308 102.687 33.1487C102.687 33.2666 102.652 33.3587 102.582 33.425C102.516 33.4876 102.42 33.519 102.295 33.519ZM102.587 33.9832V36.7466H101.996V33.9832H102.587ZM103.513 36.7466V33.9832H104.038L104.076 34.7017L103.999 34.6243C104.051 34.4659 104.124 34.3351 104.22 34.2319C104.32 34.1251 104.436 34.0477 104.568 33.9998C104.705 33.9519 104.848 33.9279 104.999 33.9279C105.195 33.9279 105.37 33.9666 105.524 34.044C105.683 34.1177 105.808 34.2301 105.9 34.3811C105.992 34.5322 106.038 34.7238 106.038 34.9559V36.7466H105.447V35.1383C105.447 34.8656 105.39 34.6777 105.276 34.5746C105.165 34.4677 105.025 34.4143 104.856 34.4143C104.734 34.4143 104.616 34.4438 104.502 34.5027C104.388 34.558 104.292 34.6483 104.215 34.7735C104.141 34.8988 104.104 35.0664 104.104 35.2765V36.7466H103.513ZM108.532 34.9725C108.532 34.7883 108.48 34.6464 108.377 34.5469C108.278 34.4438 108.139 34.3922 107.963 34.3922C107.797 34.3922 107.655 34.4309 107.537 34.5082C107.419 34.5856 107.332 34.7109 107.277 34.8841L106.78 34.674C106.85 34.4493 106.986 34.2687 107.189 34.1324C107.395 33.9961 107.66 33.9279 107.985 33.9279C108.206 33.9279 108.401 33.9648 108.57 34.0385C108.74 34.1085 108.873 34.2153 108.968 34.359C109.068 34.5027 109.118 34.6869 109.118 34.9117V36.1442C109.118 36.2805 109.186 36.3487 109.322 36.3487C109.388 36.3487 109.453 36.3394 109.516 36.321L109.482 36.73C109.398 36.7705 109.291 36.7908 109.162 36.7908C109.044 36.7908 108.937 36.7705 108.841 36.73C108.749 36.6858 108.675 36.6213 108.62 36.5366C108.569 36.4481 108.543 36.3394 108.543 36.2105V36.1718L108.664 36.1663C108.631 36.31 108.563 36.4297 108.46 36.5255C108.357 36.6176 108.237 36.6876 108.101 36.7355C107.964 36.7797 107.826 36.8018 107.686 36.8018C107.513 36.8018 107.356 36.7742 107.216 36.7189C107.08 36.6637 106.971 36.5808 106.89 36.4702C106.813 36.356 106.774 36.216 106.774 36.0502C106.774 35.8439 106.841 35.6744 106.973 35.5417C107.11 35.4091 107.301 35.3188 107.548 35.2709L108.62 35.0609L108.615 35.4754L107.835 35.6357C107.681 35.6652 107.565 35.7076 107.487 35.7628C107.41 35.8181 107.371 35.8991 107.371 36.006C107.371 36.1092 107.41 36.1921 107.487 36.2547C107.568 36.3137 107.675 36.3431 107.808 36.3431C107.9 36.3431 107.988 36.3321 108.073 36.31C108.162 36.2879 108.241 36.2529 108.311 36.205C108.381 36.1534 108.434 36.0889 108.471 36.0115C108.512 35.9305 108.532 35.8347 108.532 35.7241V34.9725ZM110.087 36.7466V33.9832H110.612L110.65 34.7017L110.573 34.6243C110.624 34.4659 110.698 34.3351 110.794 34.2319C110.893 34.1251 111.01 34.0477 111.142 33.9998C111.278 33.9519 111.422 33.9279 111.573 33.9279C111.769 33.9279 111.944 33.9666 112.098 34.044C112.257 34.1177 112.382 34.2301 112.474 34.3811C112.566 34.5322 112.612 34.7238 112.612 34.9559V36.7466H112.021V35.1383C112.021 34.8656 111.964 34.6777 111.85 34.5746C111.739 34.4677 111.599 34.4143 111.43 34.4143C111.308 34.4143 111.19 34.4438 111.076 34.5027C110.962 34.558 110.866 34.6483 110.788 34.7735C110.715 34.8988 110.678 35.0664 110.678 35.2765V36.7466H110.087ZM114.702 33.9279C114.923 33.9279 115.111 33.9611 115.266 34.0274C115.424 34.0901 115.557 34.1803 115.664 34.2982C115.771 34.4161 115.852 34.5506 115.907 34.7017L115.349 34.9227C115.301 34.7533 115.224 34.6243 115.117 34.5359C115.014 34.4438 114.877 34.3977 114.708 34.3977C114.542 34.3977 114.4 34.4364 114.282 34.5138C114.164 34.5875 114.074 34.6962 114.011 34.8398C113.952 34.9835 113.923 35.1604 113.923 35.3704C113.923 35.5768 113.954 35.7518 114.017 35.8955C114.079 36.0392 114.17 36.1478 114.288 36.2215C114.406 36.2952 114.546 36.3321 114.708 36.3321C114.833 36.3321 114.942 36.3118 115.034 36.2713C115.126 36.2271 115.201 36.1663 115.26 36.0889C115.323 36.0078 115.365 35.9102 115.387 35.796L115.924 35.9784C115.872 36.1442 115.791 36.2897 115.68 36.415C115.574 36.5366 115.439 36.6324 115.277 36.7024C115.115 36.7687 114.929 36.8018 114.719 36.8018C114.446 36.8018 114.205 36.7447 113.995 36.6305C113.785 36.5163 113.621 36.3523 113.503 36.1386C113.389 35.9213 113.332 35.6633 113.332 35.3649C113.332 35.0664 113.389 34.8104 113.503 34.5967C113.621 34.3793 113.783 34.2135 113.989 34.0993C114.199 33.985 114.437 33.9279 114.702 33.9279ZM116.91 33.519C116.781 33.519 116.682 33.4876 116.612 33.425C116.545 33.3587 116.512 33.2666 116.512 33.1487C116.512 33.0308 116.545 32.9405 116.612 32.8778C116.682 32.8152 116.781 32.7839 116.91 32.7839C117.036 32.7839 117.131 32.8152 117.198 32.8778C117.268 32.9405 117.303 33.0308 117.303 33.1487C117.303 33.2666 117.268 33.3587 117.198 33.425C117.131 33.4876 117.036 33.519 116.91 33.519ZM117.203 33.9832V36.7466H116.612V33.9832H117.203ZM119.726 34.9725C119.726 34.7883 119.674 34.6464 119.571 34.5469C119.471 34.4438 119.333 34.3922 119.156 34.3922C118.991 34.3922 118.849 34.4309 118.731 34.5082C118.613 34.5856 118.526 34.7109 118.471 34.8841L117.974 34.674C118.044 34.4493 118.18 34.2687 118.383 34.1324C118.589 33.9961 118.854 33.9279 119.179 33.9279C119.4 33.9279 119.595 33.9648 119.764 34.0385C119.934 34.1085 120.066 34.2153 120.162 34.359C120.262 34.5027 120.311 34.6869 120.311 34.9117V36.1442C120.311 36.2805 120.38 36.3487 120.516 36.3487C120.582 36.3487 120.647 36.3394 120.709 36.321L120.676 36.73C120.592 36.7705 120.485 36.7908 120.356 36.7908C120.238 36.7908 120.131 36.7705 120.035 36.73C119.943 36.6858 119.869 36.6213 119.814 36.5366C119.763 36.4481 119.737 36.3394 119.737 36.2105V36.1718L119.858 36.1663C119.825 36.31 119.757 36.4297 119.654 36.5255C119.551 36.6176 119.431 36.6876 119.295 36.7355C119.158 36.7797 119.02 36.8018 118.88 36.8018C118.707 36.8018 118.55 36.7742 118.41 36.7189C118.274 36.6637 118.165 36.5808 118.084 36.4702C118.007 36.356 117.968 36.216 117.968 36.0502C117.968 35.8439 118.034 35.6744 118.167 35.5417C118.303 35.4091 118.495 35.3188 118.742 35.2709L119.814 35.0609L119.809 35.4754L119.029 35.6357C118.875 35.6652 118.758 35.7076 118.681 35.7628C118.604 35.8181 118.565 35.8991 118.565 36.006C118.565 36.1092 118.604 36.1921 118.681 36.2547C118.762 36.3137 118.869 36.3431 119.002 36.3431C119.094 36.3431 119.182 36.3321 119.267 36.31C119.355 36.2879 119.435 36.2529 119.505 36.205C119.575 36.1534 119.628 36.0889 119.665 36.0115C119.705 35.9305 119.726 35.8347 119.726 35.7241V34.9725ZM121.855 32.7397V35.9728C121.855 36.1092 121.879 36.2031 121.927 36.2547C121.975 36.3063 122.054 36.3321 122.165 36.3321C122.231 36.3321 122.286 36.3284 122.33 36.321C122.378 36.31 122.437 36.2915 122.507 36.2658L122.441 36.7079C122.378 36.7374 122.307 36.7595 122.225 36.7742C122.144 36.7926 122.063 36.8018 121.982 36.8018C121.735 36.8018 121.553 36.7392 121.435 36.6139C121.321 36.485 121.264 36.2879 121.264 36.0226V32.7397H121.855ZM125.964 33.0436C126.292 33.0436 126.576 33.1063 126.815 33.2316C127.055 33.3531 127.257 33.5337 127.423 33.7732L127.025 34.1545C126.885 33.9408 126.727 33.7879 126.55 33.6958C126.377 33.6 126.17 33.5521 125.931 33.5521C125.754 33.5521 125.608 33.5761 125.494 33.624C125.38 33.6719 125.295 33.7363 125.24 33.8174C125.188 33.8948 125.163 33.9832 125.163 34.0827C125.163 34.1969 125.201 34.2964 125.279 34.3811C125.36 34.4659 125.509 34.5322 125.726 34.5801L126.467 34.7459C126.821 34.8233 127.071 34.9412 127.218 35.0996C127.366 35.258 127.44 35.4588 127.44 35.702C127.44 35.9268 127.379 36.1221 127.257 36.2879C127.136 36.4537 126.966 36.5808 126.749 36.6692C126.535 36.7576 126.283 36.8018 125.992 36.8018C125.734 36.8018 125.501 36.7687 125.295 36.7024C125.089 36.636 124.908 36.5458 124.754 36.4316C124.599 36.3173 124.472 36.1865 124.372 36.0392L124.781 35.6302C124.859 35.7591 124.956 35.8752 125.074 35.9784C125.192 36.0778 125.328 36.1552 125.483 36.2105C125.642 36.2658 125.817 36.2934 126.008 36.2934C126.178 36.2934 126.323 36.2731 126.445 36.2326C126.57 36.1921 126.664 36.1331 126.727 36.0557C126.793 35.9747 126.826 35.8789 126.826 35.7683C126.826 35.6615 126.789 35.5675 126.716 35.4865C126.646 35.4054 126.513 35.3428 126.318 35.2986L125.516 35.1162C125.295 35.0683 125.113 35.0001 124.969 34.9117C124.825 34.8233 124.719 34.7164 124.649 34.5911C124.579 34.4622 124.544 34.3185 124.544 34.1601C124.544 33.9537 124.599 33.7677 124.709 33.6019C124.824 33.4324 124.988 33.2979 125.201 33.1984C125.415 33.0952 125.669 33.0436 125.964 33.0436ZM129.399 36.8018C129.123 36.8018 128.88 36.7447 128.67 36.6305C128.46 36.5163 128.296 36.3523 128.178 36.1386C128.064 35.9213 128.007 35.6633 128.007 35.3649C128.007 35.0664 128.064 34.8104 128.178 34.5967C128.296 34.3793 128.458 34.2135 128.664 34.0993C128.871 33.985 129.105 33.9279 129.366 33.9279C129.635 33.9279 129.864 33.9832 130.052 34.0937C130.239 34.2043 130.383 34.3553 130.483 34.5469C130.582 34.7385 130.632 34.9559 130.632 35.1991C130.632 35.2654 130.63 35.328 130.626 35.387C130.623 35.446 130.617 35.4975 130.61 35.5417H128.388V35.0886H130.35L130.057 35.177C130.057 34.9264 129.994 34.7348 129.869 34.6022C129.744 34.4659 129.573 34.3977 129.355 34.3977C129.197 34.3977 129.059 34.4346 128.941 34.5082C128.823 34.5819 128.732 34.6925 128.67 34.8398C128.607 34.9835 128.576 35.1604 128.576 35.3704C128.576 35.5768 128.609 35.7518 128.675 35.8955C128.742 36.0392 128.836 36.1478 128.957 36.2215C129.079 36.2952 129.222 36.3321 129.388 36.3321C129.573 36.3321 129.722 36.2971 129.836 36.2271C129.95 36.1571 130.04 36.0594 130.107 35.9341L130.577 36.1552C130.51 36.2879 130.42 36.4039 130.306 36.5034C130.195 36.5992 130.063 36.6729 129.908 36.7245C129.753 36.7761 129.584 36.8018 129.399 36.8018ZM131.379 36.7466V33.9832H131.882L131.937 34.4806C132.011 34.3001 132.119 34.1637 132.263 34.0716C132.41 33.9758 132.591 33.9279 132.805 33.9279C132.86 33.9279 132.915 33.9335 132.97 33.9445C133.026 33.9519 133.072 33.9648 133.108 33.9832L133.026 34.5027C132.985 34.488 132.939 34.4769 132.887 34.4696C132.84 34.4585 132.773 34.453 132.688 34.453C132.574 34.453 132.462 34.4843 132.351 34.5469C132.241 34.6059 132.149 34.6962 132.075 34.8177C132.005 34.9393 131.97 35.0941 131.97 35.282V36.7466H131.379ZM135.485 33.9832H136.104L135.005 36.7466H134.358L133.253 33.9832H133.899L134.684 36.2326L135.485 33.9832ZM136.907 33.519C136.778 33.519 136.679 33.4876 136.609 33.425C136.542 33.3587 136.509 33.2666 136.509 33.1487C136.509 33.0308 136.542 32.9405 136.609 32.8778C136.679 32.8152 136.778 32.7839 136.907 32.7839C137.032 32.7839 137.128 32.8152 137.194 32.8778C137.264 32.9405 137.299 33.0308 137.299 33.1487C137.299 33.2666 137.264 33.3587 137.194 33.425C137.128 33.4876 137.032 33.519 136.907 33.519ZM137.2 33.9832V36.7466H136.609V33.9832H137.2ZM139.319 33.9279C139.54 33.9279 139.728 33.9611 139.883 34.0274C140.041 34.0901 140.174 34.1803 140.281 34.2982C140.387 34.4161 140.469 34.5506 140.524 34.7017L139.966 34.9227C139.918 34.7533 139.84 34.6243 139.733 34.5359C139.63 34.4438 139.494 34.3977 139.324 34.3977C139.159 34.3977 139.017 34.4364 138.899 34.5138C138.781 34.5875 138.691 34.6962 138.628 34.8398C138.569 34.9835 138.54 35.1604 138.54 35.3704C138.54 35.5768 138.571 35.7518 138.634 35.8955C138.696 36.0392 138.787 36.1478 138.904 36.2215C139.022 36.2952 139.162 36.3321 139.324 36.3321C139.45 36.3321 139.558 36.3118 139.651 36.2713C139.743 36.2271 139.818 36.1663 139.877 36.0889C139.94 36.0078 139.982 35.9102 140.004 35.796L140.54 35.9784C140.489 36.1442 140.408 36.2897 140.297 36.415C140.19 36.5366 140.056 36.6324 139.894 36.7024C139.732 36.7687 139.546 36.8018 139.336 36.8018C139.063 36.8018 138.822 36.7447 138.612 36.6305C138.402 36.5163 138.238 36.3523 138.12 36.1386C138.005 35.9213 137.948 35.6633 137.948 35.3649C137.948 35.0664 138.005 34.8104 138.12 34.5967C138.238 34.3793 138.4 34.2135 138.606 34.0993C138.816 33.985 139.054 33.9279 139.319 33.9279ZM142.444 36.8018C142.168 36.8018 141.925 36.7447 141.715 36.6305C141.505 36.5163 141.341 36.3523 141.223 36.1386C141.109 35.9213 141.052 35.6633 141.052 35.3649C141.052 35.0664 141.109 34.8104 141.223 34.5967C141.341 34.3793 141.503 34.2135 141.709 34.0993C141.916 33.985 142.15 33.9279 142.411 33.9279C142.68 33.9279 142.909 33.9832 143.097 34.0937C143.285 34.2043 143.428 34.3553 143.528 34.5469C143.627 34.7385 143.677 34.9559 143.677 35.1991C143.677 35.2654 143.675 35.328 143.671 35.387C143.668 35.446 143.662 35.4975 143.655 35.5417H141.433V35.0886H143.395L143.102 35.177C143.102 34.9264 143.04 34.7348 142.914 34.6022C142.789 34.4659 142.618 34.3977 142.4 34.3977C142.242 34.3977 142.104 34.4346 141.986 34.5082C141.868 34.5819 141.778 34.6925 141.715 34.8398C141.652 34.9835 141.621 35.1604 141.621 35.3704C141.621 35.5768 141.654 35.7518 141.72 35.8955C141.787 36.0392 141.881 36.1478 142.002 36.2215C142.124 36.2952 142.268 36.3321 142.433 36.3321C142.618 36.3321 142.767 36.2971 142.881 36.2271C142.995 36.1571 143.086 36.0594 143.152 35.9341L143.622 36.1552C143.555 36.2879 143.465 36.4039 143.351 36.5034C143.24 36.5992 143.108 36.6729 142.953 36.7245C142.798 36.7761 142.629 36.8018 142.444 36.8018ZM145.474 36.8018C145.197 36.8018 144.945 36.7484 144.717 36.6416C144.488 36.5347 144.308 36.3837 144.175 36.1884L144.584 35.8347C144.665 35.9857 144.781 36.1073 144.932 36.1994C145.087 36.2879 145.271 36.3321 145.485 36.3321C145.654 36.3321 145.789 36.3026 145.888 36.2436C145.988 36.1847 146.038 36.1018 146.038 35.9949C146.038 35.9249 146.014 35.8641 145.966 35.8126C145.921 35.7573 145.835 35.7149 145.706 35.6854L145.126 35.5639C144.831 35.5049 144.621 35.4109 144.496 35.282C144.37 35.1493 144.308 34.9817 144.308 34.7791C144.308 34.628 144.352 34.488 144.44 34.359C144.529 34.2301 144.658 34.1269 144.827 34.0495C145 33.9685 145.207 33.9279 145.446 33.9279C145.723 33.9279 145.958 33.9777 146.154 34.0772C146.349 34.173 146.498 34.3111 146.601 34.4917L146.192 34.8343C146.122 34.6869 146.019 34.5782 145.883 34.5082C145.746 34.4346 145.605 34.3977 145.457 34.3977C145.339 34.3977 145.238 34.4124 145.153 34.4419C145.069 34.4714 145.004 34.5119 144.96 34.5635C144.916 34.6151 144.894 34.6759 144.894 34.7459C144.894 34.8196 144.921 34.8841 144.976 34.9393C145.032 34.9946 145.131 35.037 145.275 35.0664L145.905 35.1991C146.17 35.2507 146.356 35.3391 146.463 35.4644C146.574 35.586 146.629 35.7352 146.629 35.912C146.629 36.0889 146.583 36.2455 146.491 36.3818C146.399 36.5145 146.266 36.6176 146.093 36.6913C145.92 36.765 145.713 36.8018 145.474 36.8018Z" fill="white"/>
</svg>
