<svg width="320" height="125" viewBox="0 0 320 125" fill="none" xmlns="http://www.w3.org/2000/svg">
<path d="M60.3822 111.979L111.27 67.5468C112.102 66.8203 112.188 65.5568 111.461 64.7248L66.5383 13.2756C65.8119 12.4436 64.5484 12.358 63.7164 13.0845L12.8287 57.5169C11.9966 58.2434 11.9111 59.5069 12.6375 60.3389L57.5602 111.788C58.2867 112.62 59.5502 112.706 60.3822 111.979Z" fill="#052541" stroke="white"/>
<path d="M30.8157 91.3415L89.1896 95.2408C90.1261 95.3034 90.936 94.5949 90.9986 93.6584L94.9409 34.6411C95.0034 33.7046 94.2949 32.8946 93.3584 32.8321L34.9845 28.9328C34.048 28.8702 33.2381 29.5787 33.1755 30.5152L29.2332 89.5325C29.1707 90.469 29.8791 91.2789 30.8157 91.3415Z" fill="#FB9F28" stroke="white"/>
<path d="M59.392 59.96L56.368 66.072H54.88L51.872 59.96V67H47.824V66.312H49.376V55.816H52.752L55.632 61.96L58.528 55.816H61.888V66.312H63.44V67H59.392V59.96ZM76.8176 66.312V67H72.6096L71.5696 64.584H66.8816L65.8416 67H61.6336V66.312H63.4736L68.0176 55.816H70.4336L74.9616 66.312H76.8176ZM69.2336 59.144L67.8256 62.392H70.6256L69.2336 59.144Z" fill="white"/>
<path d="M144.99 50.6669L141.588 57.5429H139.914L136.53 50.6669V58.5869H131.976V57.8129H133.722V46.0049H137.52L140.76 52.9169L144.018 46.0049H147.798V57.8129H149.544V58.5869H144.99V50.6669ZM155.252 57.8129V58.5869H149.348V57.8129H150.896V46.0049H153.704V57.8129H155.252ZM168.502 57.8129V58.5869H155.254V57.8129H159.124C158.164 57.2489 157.408 56.4869 156.856 55.5269C156.316 54.5549 156.046 53.4569 156.046 52.2329C156.046 50.3849 156.682 48.8369 157.954 47.5889C159.238 46.3409 160.804 45.7169 162.652 45.7169C164.716 45.7169 166.444 46.5029 167.836 48.0749L166.09 50.0549C165.202 48.9509 164.098 48.3989 162.778 48.3989C161.722 48.3989 160.816 48.7469 160.06 49.4429C159.316 50.1269 158.944 51.0569 158.944 52.2329C158.944 53.3969 159.298 54.3329 160.006 55.0409C160.714 55.7489 161.572 56.1029 162.58 56.1029C163.96 56.1029 165.088 55.5569 165.964 54.4649L167.764 56.3189C167.236 56.9309 166.642 57.4289 165.982 57.8129H168.502ZM182.224 57.8129V58.5869H177.868V53.6369H172.864V58.5869H168.508V57.8129H170.056V46.0049H172.864V51.2609H177.868V46.0049H180.676V57.8129H182.224ZM183.767 57.8129V46.0049H192.839V48.5069H186.575V51.0989H192.209V53.4929H186.575V56.1029H193.037V57.8129H194.783V58.5869H182.021V57.8129H183.767ZM209.242 57.8129V58.5869H204.508L203.338 55.8689H198.064L196.894 58.5869H192.16V57.8129H194.23L199.342 46.0049H202.06L207.154 57.8129H209.242ZM200.71 49.7489L199.126 53.4029H202.276L200.71 49.7489ZM218.874 57.8129V58.5869H207.21V57.8129H208.956V46.0049H211.764V56.0849H217.128V57.8129H218.874ZM222.391 57.8129V58.5869H217.639V57.8129H222.391ZM237.631 57.8129V58.5869H232.897L231.727 55.8689H226.453L225.283 58.5869H220.549V57.8129H222.619L227.731 46.0049H230.449L235.543 57.8129H237.631ZM229.099 49.7489L227.515 53.4029H230.665L229.099 49.7489ZM247.263 57.8129V58.5869H235.599V57.8129H237.345V46.0049H240.153V56.0849H245.517V57.8129H247.263ZM261.274 57.8129V58.5869H256.54L255.37 55.8689H250.096L248.926 58.5869H244.192V57.8129H246.262L251.374 46.0049H254.092L259.186 57.8129H261.274ZM252.742 49.7489L251.158 53.4029H254.308L252.742 49.7489ZM272.94 57.8129V58.5869H259.44V57.8129H263.346C262.386 57.2489 261.63 56.4869 261.078 55.5269C260.538 54.5549 260.268 53.4569 260.268 52.2329C260.268 50.3849 260.904 48.8369 262.176 47.5889C263.46 46.3409 265.002 45.7169 266.802 45.7169C268.614 45.7169 270.186 46.3109 271.518 47.4989L270.06 49.6049C269.496 49.1129 268.974 48.7769 268.494 48.5969C268.026 48.4049 267.516 48.3089 266.964 48.3089C265.896 48.3089 264.996 48.6749 264.264 49.4069C263.532 50.1269 263.166 51.0809 263.166 52.2689C263.166 53.4569 263.514 54.4109 264.21 55.1309C264.918 55.8389 265.758 56.1929 266.73 56.1929C267.702 56.1929 268.512 56.0069 269.16 55.6349V52.1789H271.986V56.6429C271.578 57.0989 271.092 57.4889 270.528 57.8129H272.94ZM285.648 57.8129V58.5869H272.742V57.8129H274.488V46.0049H279.384C280.236 46.0049 280.968 46.1069 281.58 46.3109C282.204 46.5149 282.672 46.7909 282.984 47.1389C283.548 47.7869 283.83 48.5189 283.83 49.3349C283.83 50.3189 283.512 51.0509 282.876 51.5309C282.66 51.6989 282.51 51.8069 282.426 51.8549C282.342 51.8909 282.192 51.9569 281.976 52.0529C282.756 52.2209 283.374 52.5749 283.83 53.1149C284.298 53.6429 284.532 54.3029 284.532 55.0949C284.532 56.2829 284.064 57.1889 283.128 57.8129H285.648ZM277.296 56.2109H279.222C280.026 56.2109 280.626 56.1149 281.022 55.9229C281.43 55.7189 281.634 55.3289 281.634 54.7529C281.634 54.1649 281.418 53.7809 280.986 53.6009C280.566 53.4089 279.888 53.3129 278.952 53.3129H277.296V56.2109ZM277.296 51.0989H278.628C279.408 51.0989 279.984 51.0149 280.356 50.8469C280.74 50.6789 280.932 50.3189 280.932 49.7669C280.932 49.2029 280.758 48.8309 280.41 48.6509C280.062 48.4709 279.474 48.3809 278.646 48.3809H277.296V51.0989ZM287.197 57.8129V46.0049H296.269V48.5069H290.005V51.0989H295.639V53.4929H290.005V56.1029H296.467V57.8129H298.213V58.5869H285.451V57.8129H287.197Z" fill="#052541"/>
<path d="M139.926 79.5869H138.57L137.814 77.5109H134.49L133.734 79.5869H132.414L135.402 71.6669H136.938L139.926 79.5869ZM134.85 76.4669H137.454L136.158 72.7709L134.85 76.4669ZM143.614 73.4669C144.094 73.4669 144.502 73.5389 144.838 73.6829C145.182 73.8189 145.47 74.0149 145.702 74.2709C145.934 74.5269 146.11 74.8189 146.23 75.1469L145.018 75.6269C144.914 75.2589 144.746 74.9789 144.514 74.7869C144.29 74.5869 143.994 74.4869 143.626 74.4869C143.266 74.4869 142.958 74.5709 142.702 74.7389C142.446 74.8989 142.25 75.1349 142.114 75.4469C141.986 75.7589 141.922 76.1429 141.922 76.5989C141.922 77.0469 141.99 77.4269 142.126 77.7389C142.262 78.0509 142.458 78.2869 142.714 78.4469C142.97 78.6069 143.274 78.6869 143.626 78.6869C143.898 78.6869 144.134 78.6429 144.334 78.5549C144.534 78.4589 144.698 78.3269 144.826 78.1589C144.962 77.9829 145.054 77.7709 145.102 77.5229L146.266 77.9189C146.154 78.2789 145.978 78.5949 145.738 78.8669C145.506 79.1309 145.214 79.3389 144.862 79.4909C144.51 79.6349 144.106 79.7069 143.65 79.7069C143.058 79.7069 142.534 79.5829 142.078 79.3349C141.622 79.0869 141.266 78.7309 141.01 78.2669C140.762 77.7949 140.638 77.2349 140.638 76.5869C140.638 75.9389 140.762 75.3829 141.01 74.9189C141.266 74.4469 141.618 74.0869 142.066 73.8389C142.522 73.5909 143.038 73.4669 143.614 73.4669ZM150.352 73.4669C150.832 73.4669 151.24 73.5389 151.576 73.6829C151.92 73.8189 152.208 74.0149 152.44 74.2709C152.672 74.5269 152.848 74.8189 152.968 75.1469L151.756 75.6269C151.652 75.2589 151.484 74.9789 151.252 74.7869C151.028 74.5869 150.732 74.4869 150.364 74.4869C150.004 74.4869 149.696 74.5709 149.44 74.7389C149.184 74.8989 148.988 75.1349 148.852 75.4469C148.724 75.7589 148.66 76.1429 148.66 76.5989C148.66 77.0469 148.728 77.4269 148.864 77.7389C149 78.0509 149.196 78.2869 149.452 78.4469C149.708 78.6069 150.012 78.6869 150.364 78.6869C150.636 78.6869 150.872 78.6429 151.072 78.5549C151.272 78.4589 151.436 78.3269 151.564 78.1589C151.7 77.9829 151.792 77.7709 151.84 77.5229L153.004 77.9189C152.892 78.2789 152.716 78.5949 152.476 78.8669C152.244 79.1309 151.952 79.3389 151.6 79.4909C151.248 79.6349 150.844 79.7069 150.388 79.7069C149.796 79.7069 149.272 79.5829 148.816 79.3349C148.36 79.0869 148.004 78.7309 147.748 78.2669C147.5 77.7949 147.376 77.2349 147.376 76.5869C147.376 75.9389 147.5 75.3829 147.748 74.9189C148.004 74.4469 148.356 74.0869 148.804 73.8389C149.26 73.5909 149.776 73.4669 150.352 73.4669ZM157.102 73.4669C157.686 73.4669 158.202 73.5909 158.65 73.8389C159.098 74.0869 159.446 74.4469 159.694 74.9189C159.95 75.3829 160.078 75.9389 160.078 76.5869C160.078 77.2349 159.95 77.7949 159.694 78.2669C159.446 78.7309 159.098 79.0869 158.65 79.3349C158.202 79.5829 157.686 79.7069 157.102 79.7069C156.518 79.7069 156.002 79.5829 155.554 79.3349C155.106 79.0869 154.754 78.7309 154.498 78.2669C154.242 77.7949 154.114 77.2349 154.114 76.5869C154.114 75.9389 154.242 75.3829 154.498 74.9189C154.754 74.4469 155.106 74.0869 155.554 73.8389C156.002 73.5909 156.518 73.4669 157.102 73.4669ZM157.102 74.4749C156.742 74.4749 156.434 74.5589 156.178 74.7269C155.93 74.8869 155.738 75.1229 155.602 75.4349C155.466 75.7469 155.398 76.1309 155.398 76.5869C155.398 77.0349 155.466 77.4189 155.602 77.7389C155.738 78.0509 155.93 78.2909 156.178 78.4589C156.434 78.6189 156.742 78.6989 157.102 78.6989C157.462 78.6989 157.766 78.6189 158.014 78.4589C158.262 78.2909 158.454 78.0509 158.59 77.7389C158.726 77.4189 158.794 77.0349 158.794 76.5869C158.794 76.1309 158.726 75.7469 158.59 75.4349C158.454 75.1229 158.262 74.8869 158.014 74.7269C157.766 74.5589 157.462 74.4749 157.102 74.4749ZM163.83 79.7069C163.438 79.7069 163.074 79.6349 162.738 79.4909C162.41 79.3469 162.146 79.1149 161.946 78.7949C161.746 78.4749 161.646 78.0589 161.646 77.5469V73.5869H162.93V77.2229C162.93 77.7669 163.046 78.1429 163.278 78.3509C163.51 78.5509 163.834 78.6509 164.25 78.6509C164.45 78.6509 164.642 78.6189 164.826 78.5549C165.018 78.4829 165.19 78.3749 165.342 78.2309C165.494 78.0789 165.61 77.8869 165.69 77.6549C165.778 77.4229 165.822 77.1509 165.822 76.8389V73.5869H167.106V79.5869H165.978L165.918 78.6149C165.71 78.9909 165.43 79.2669 165.078 79.4429C164.726 79.6189 164.31 79.7069 163.83 79.7069ZM169.111 79.5869V73.5869H170.251L170.335 75.1469L170.167 74.9789C170.279 74.6349 170.439 74.3509 170.647 74.1269C170.863 73.8949 171.115 73.7269 171.403 73.6229C171.699 73.5189 172.011 73.4669 172.339 73.4669C172.763 73.4669 173.143 73.5509 173.479 73.7189C173.823 73.8789 174.095 74.1229 174.295 74.4509C174.495 74.7789 174.595 75.1949 174.595 75.6989V79.5869H173.311V76.0949C173.311 75.5029 173.187 75.0949 172.939 74.8709C172.699 74.6389 172.395 74.5229 172.027 74.5229C171.763 74.5229 171.507 74.5869 171.259 74.7149C171.011 74.8349 170.803 75.0309 170.635 75.3029C170.475 75.5749 170.395 75.9389 170.395 76.3949V79.5869H169.111ZM178.223 71.8229V77.7869C178.223 78.0829 178.299 78.2989 178.451 78.4349C178.611 78.5709 178.823 78.6389 179.087 78.6389C179.303 78.6389 179.491 78.6069 179.651 78.5429C179.811 78.4709 179.959 78.3749 180.095 78.2549L180.383 79.1909C180.199 79.3509 179.971 79.4789 179.699 79.5749C179.435 79.6629 179.139 79.7069 178.811 79.7069C178.467 79.7069 178.151 79.6509 177.863 79.5389C177.575 79.4269 177.351 79.2469 177.191 78.9989C177.031 78.7429 176.947 78.4109 176.939 78.0029V72.1829L178.223 71.8229ZM180.287 73.5869V74.5949H175.787V73.5869H180.287ZM182.205 72.5789C181.925 72.5789 181.709 72.5109 181.557 72.3749C181.413 72.2309 181.341 72.0309 181.341 71.7749C181.341 71.5189 181.413 71.3229 181.557 71.1869C181.709 71.0509 181.925 70.9829 182.205 70.9829C182.477 70.9829 182.685 71.0509 182.829 71.1869C182.981 71.3229 183.057 71.5189 183.057 71.7749C183.057 72.0309 182.981 72.2309 182.829 72.3749C182.685 72.5109 182.477 72.5789 182.205 72.5789ZM182.841 73.5869V79.5869H181.557V73.5869H182.841ZM184.85 79.5869V73.5869H185.99L186.074 75.1469L185.906 74.9789C186.018 74.6349 186.178 74.3509 186.386 74.1269C186.602 73.8949 186.854 73.7269 187.142 73.6229C187.438 73.5189 187.75 73.4669 188.078 73.4669C188.502 73.4669 188.882 73.5509 189.218 73.7189C189.562 73.8789 189.834 74.1229 190.034 74.4509C190.234 74.7789 190.334 75.1949 190.334 75.6989V79.5869H189.05V76.0949C189.05 75.5029 188.926 75.0949 188.678 74.8709C188.438 74.6389 188.134 74.5229 187.766 74.5229C187.502 74.5229 187.246 74.5869 186.998 74.7149C186.75 74.8349 186.542 75.0309 186.374 75.3029C186.214 75.5749 186.134 75.9389 186.134 76.3949V79.5869H184.85ZM197.559 72.3269L197.763 73.3349C197.739 73.3349 197.715 73.3349 197.691 73.3349C197.667 73.3269 197.643 73.3229 197.619 73.3229C197.235 73.3229 196.943 73.4069 196.743 73.5749C196.543 73.7349 196.443 73.9709 196.443 74.2829L195.819 73.9949C195.819 73.6749 195.887 73.3909 196.023 73.1429C196.159 72.8869 196.351 72.6869 196.599 72.5429C196.855 72.3989 197.143 72.3269 197.463 72.3269C197.479 72.3269 197.495 72.3269 197.511 72.3269C197.527 72.3269 197.543 72.3269 197.559 72.3269ZM195.663 78.6509C196.271 78.6509 196.743 78.7869 197.079 79.0589C197.415 79.3229 197.583 79.6909 197.583 80.1629C197.583 80.5789 197.451 80.9349 197.187 81.2309C196.923 81.5349 196.563 81.7669 196.107 81.9269C195.659 82.0869 195.143 82.1669 194.559 82.1669C193.575 82.1669 192.847 82.0149 192.375 81.7109C191.903 81.4069 191.667 81.0269 191.667 80.5709C191.667 80.2509 191.779 79.9709 192.003 79.7309C192.235 79.4909 192.623 79.3549 193.167 79.3229L193.095 79.5149C192.759 79.4429 192.487 79.3149 192.279 79.1309C192.079 78.9389 191.979 78.6709 191.979 78.3269C191.979 77.9829 192.111 77.6909 192.375 77.4509C192.639 77.2109 193.011 77.0709 193.491 77.0309L194.163 77.3549H194.019C193.651 77.3869 193.391 77.4709 193.239 77.6069C193.087 77.7429 193.011 77.8949 193.011 78.0629C193.011 78.2629 193.083 78.4109 193.227 78.5069C193.379 78.6029 193.591 78.6509 193.863 78.6509H195.663ZM194.559 81.2069C194.999 81.2069 195.359 81.1629 195.639 81.0749C195.927 80.9949 196.139 80.8869 196.275 80.7509C196.419 80.6229 196.491 80.4789 196.491 80.3189C196.491 80.1349 196.415 79.9869 196.263 79.8749C196.119 79.7629 195.855 79.7069 195.471 79.7069H193.539C193.315 79.7069 193.127 79.7629 192.975 79.8749C192.823 79.9949 192.747 80.1549 192.747 80.3549C192.747 80.6189 192.907 80.8269 193.227 80.9789C193.547 81.1309 193.991 81.2069 194.559 81.2069ZM194.511 73.4669C195.039 73.4669 195.495 73.5509 195.879 73.7189C196.271 73.8869 196.571 74.1229 196.779 74.4269C196.995 74.7309 197.103 75.0869 197.103 75.4949C197.103 75.9029 196.995 76.2589 196.779 76.5629C196.571 76.8669 196.271 77.1029 195.879 77.2709C195.495 77.4389 195.039 77.5229 194.511 77.5229C193.679 77.5229 193.039 77.3389 192.591 76.9709C192.151 76.5949 191.931 76.1029 191.931 75.4949C191.931 75.0869 192.039 74.7309 192.255 74.4269C192.471 74.1229 192.771 73.8869 193.155 73.7189C193.547 73.5509 193.999 73.4669 194.511 73.4669ZM194.511 74.3669C194.143 74.3669 193.835 74.4709 193.587 74.6789C193.347 74.8789 193.227 75.1509 193.227 75.4949C193.227 75.8389 193.347 76.1149 193.587 76.3229C193.835 76.5309 194.143 76.6349 194.511 76.6349C194.887 76.6349 195.195 76.5309 195.435 76.3229C195.683 76.1149 195.807 75.8389 195.807 75.4949C195.807 75.1509 195.683 74.8789 195.435 74.6789C195.195 74.4709 194.887 74.3669 194.511 74.3669ZM204.762 79.7069C204.226 79.7069 203.762 79.6189 203.37 79.4429C202.986 79.2589 202.686 79.0069 202.47 78.6869C202.262 78.3669 202.158 77.9909 202.158 77.5589C202.158 77.3109 202.19 77.0749 202.254 76.8509C202.326 76.6189 202.438 76.3989 202.59 76.1909C202.75 75.9749 202.966 75.7789 203.238 75.6029C203.51 75.4189 203.85 75.2589 204.258 75.1229L204.726 74.9189C205.046 74.7349 205.302 74.5669 205.494 74.4149C205.694 74.2629 205.838 74.1029 205.926 73.9349C206.022 73.7669 206.07 73.5709 206.07 73.3469C206.07 73.0829 205.99 72.8789 205.83 72.7349C205.67 72.5909 205.458 72.5189 205.194 72.5189C204.882 72.5189 204.646 72.6069 204.486 72.7829C204.334 72.9509 204.258 73.1549 204.258 73.3949C204.258 73.5389 204.278 73.6789 204.318 73.8149C204.366 73.9509 204.454 74.1189 204.582 74.3189C204.718 74.5189 204.914 74.7829 205.17 75.1109C205.426 75.4309 205.774 75.8549 206.214 76.3829C206.646 76.9029 207.006 77.3269 207.294 77.6549C207.59 77.9749 207.842 78.2189 208.05 78.3869C208.258 78.5469 208.45 78.6549 208.626 78.7109C208.81 78.7589 209.014 78.7789 209.238 78.7709L209.022 79.7069C208.766 79.7069 208.526 79.6789 208.302 79.6229C208.086 79.5749 207.85 79.4629 207.594 79.2869C207.346 79.1109 207.05 78.8469 206.706 78.4949C206.37 78.1429 205.954 77.6749 205.458 77.0909C204.994 76.5469 204.606 76.0909 204.294 75.7229C203.99 75.3469 203.75 75.0309 203.574 74.7749C203.406 74.5109 203.286 74.2749 203.214 74.0669C203.142 73.8509 203.106 73.6229 203.106 73.3829C203.106 73.0869 203.182 72.7989 203.334 72.5189C203.486 72.2309 203.714 71.9989 204.018 71.8229C204.33 71.6389 204.734 71.5469 205.23 71.5469C205.63 71.5469 205.97 71.6189 206.25 71.7629C206.53 71.9069 206.746 72.1069 206.898 72.3629C207.05 72.6109 207.126 72.8989 207.126 73.2269C207.126 73.5309 207.07 73.8149 206.958 74.0789C206.846 74.3429 206.646 74.5949 206.358 74.8349C206.078 75.0749 205.678 75.3109 205.158 75.5429L204.762 75.7109C204.394 75.8949 204.106 76.0709 203.898 76.2389C203.69 76.4069 203.542 76.5869 203.454 76.7789C203.366 76.9629 203.322 77.1869 203.322 77.4509C203.322 77.7229 203.39 77.9589 203.526 78.1589C203.67 78.3509 203.862 78.4989 204.102 78.6029C204.342 78.7069 204.61 78.7589 204.906 78.7589C205.33 78.7589 205.69 78.6869 205.986 78.5429C206.282 78.3909 206.558 78.1829 206.814 77.9189L206.982 77.7389C207.174 77.4349 207.322 77.0909 207.426 76.7069C207.538 76.3229 207.574 75.8869 207.534 75.3989L208.53 75.4589C208.546 75.9709 208.478 76.4669 208.326 76.9469C208.182 77.4269 207.958 77.8589 207.654 78.2429L207.414 78.5069C207.126 78.8749 206.762 79.1669 206.322 79.3829C205.882 79.5989 205.362 79.7069 204.762 79.7069ZM220.027 72.7709H215.587V75.0749H219.067V76.1789H215.587V79.5869H214.303V71.6669H220.027V72.7709ZM222.107 72.5789C221.827 72.5789 221.611 72.5109 221.459 72.3749C221.315 72.2309 221.243 72.0309 221.243 71.7749C221.243 71.5189 221.315 71.3229 221.459 71.1869C221.611 71.0509 221.827 70.9829 222.107 70.9829C222.379 70.9829 222.587 71.0509 222.731 71.1869C222.883 71.3229 222.959 71.5189 222.959 71.7749C222.959 72.0309 222.883 72.2309 222.731 72.3749C222.587 72.5109 222.379 72.5789 222.107 72.5789ZM222.743 73.5869V79.5869H221.459V73.5869H222.743ZM224.752 79.5869V73.5869H225.892L225.976 75.1469L225.808 74.9789C225.92 74.6349 226.08 74.3509 226.288 74.1269C226.504 73.8949 226.756 73.7269 227.044 73.6229C227.34 73.5189 227.652 73.4669 227.98 73.4669C228.404 73.4669 228.784 73.5509 229.12 73.7189C229.464 73.8789 229.736 74.1229 229.936 74.4509C230.136 74.7789 230.236 75.1949 230.236 75.6989V79.5869H228.952V76.0949C228.952 75.5029 228.828 75.0949 228.58 74.8709C228.34 74.6389 228.036 74.5229 227.668 74.5229C227.404 74.5229 227.148 74.5869 226.9 74.7149C226.652 74.8349 226.444 75.0309 226.276 75.3029C226.116 75.5749 226.036 75.9389 226.036 76.3949V79.5869H224.752ZM235.65 75.7349C235.65 75.3349 235.538 75.0269 235.314 74.8109C235.098 74.5869 234.798 74.4749 234.414 74.4749C234.054 74.4749 233.746 74.5589 233.49 74.7269C233.234 74.8949 233.046 75.1669 232.926 75.5429L231.846 75.0869C231.998 74.5989 232.294 74.2069 232.734 73.9109C233.182 73.6149 233.758 73.4669 234.462 73.4669C234.942 73.4669 235.366 73.5469 235.734 73.7069C236.102 73.8589 236.39 74.0909 236.598 74.4029C236.814 74.7149 236.922 75.1149 236.922 75.6029V78.2789C236.922 78.5749 237.07 78.7229 237.366 78.7229C237.51 78.7229 237.65 78.7029 237.786 78.6629L237.714 79.5509C237.53 79.6389 237.298 79.6829 237.018 79.6829C236.762 79.6829 236.53 79.6389 236.322 79.5509C236.122 79.4549 235.962 79.3149 235.842 79.1309C235.73 78.9389 235.674 78.7029 235.674 78.4229V78.3389L235.938 78.3269C235.866 78.6389 235.718 78.8989 235.494 79.1069C235.27 79.3069 235.01 79.4589 234.714 79.5629C234.418 79.6589 234.118 79.7069 233.814 79.7069C233.438 79.7069 233.098 79.6469 232.794 79.5269C232.498 79.4069 232.262 79.2269 232.086 78.9869C231.918 78.7389 231.834 78.4349 231.834 78.0749C231.834 77.6269 231.978 77.2589 232.266 76.9709C232.562 76.6829 232.978 76.4869 233.514 76.3829L235.842 75.9269L235.83 76.8269L234.138 77.1749C233.802 77.2389 233.55 77.3309 233.382 77.4509C233.214 77.5709 233.13 77.7469 233.13 77.9789C233.13 78.2029 233.214 78.3829 233.382 78.5189C233.558 78.6469 233.79 78.7109 234.078 78.7109C234.278 78.7109 234.47 78.6869 234.654 78.6389C234.846 78.5909 235.018 78.5149 235.17 78.4109C235.322 78.2989 235.438 78.1589 235.518 77.9909C235.606 77.8149 235.65 77.6069 235.65 77.3669V75.7349ZM239.026 79.5869V73.5869H240.166L240.25 75.1469L240.082 74.9789C240.194 74.6349 240.354 74.3509 240.562 74.1269C240.778 73.8949 241.03 73.7269 241.318 73.6229C241.614 73.5189 241.926 73.4669 242.254 73.4669C242.678 73.4669 243.058 73.5509 243.394 73.7189C243.738 73.8789 244.01 74.1229 244.21 74.4509C244.41 74.7789 244.51 75.1949 244.51 75.6989V79.5869H243.226V76.0949C243.226 75.5029 243.102 75.0949 242.854 74.8709C242.614 74.6389 242.31 74.5229 241.942 74.5229C241.678 74.5229 241.422 74.5869 241.174 74.7149C240.926 74.8349 240.718 75.0309 240.55 75.3029C240.39 75.5749 240.31 75.9389 240.31 76.3949V79.5869H239.026ZM249.047 73.4669C249.527 73.4669 249.935 73.5389 250.271 73.6829C250.615 73.8189 250.903 74.0149 251.135 74.2709C251.367 74.5269 251.543 74.8189 251.663 75.1469L250.451 75.6269C250.347 75.2589 250.179 74.9789 249.947 74.7869C249.723 74.5869 249.427 74.4869 249.059 74.4869C248.699 74.4869 248.391 74.5709 248.135 74.7389C247.879 74.8989 247.683 75.1349 247.547 75.4469C247.419 75.7589 247.355 76.1429 247.355 76.5989C247.355 77.0469 247.423 77.4269 247.559 77.7389C247.695 78.0509 247.891 78.2869 248.147 78.4469C248.403 78.6069 248.707 78.6869 249.059 78.6869C249.331 78.6869 249.567 78.6429 249.767 78.5549C249.967 78.4589 250.131 78.3269 250.259 78.1589C250.395 77.9829 250.487 77.7709 250.535 77.5229L251.699 77.9189C251.587 78.2789 251.411 78.5949 251.171 78.8669C250.939 79.1309 250.647 79.3389 250.295 79.4909C249.943 79.6349 249.539 79.7069 249.083 79.7069C248.491 79.7069 247.967 79.5829 247.511 79.3349C247.055 79.0869 246.699 78.7309 246.443 78.2669C246.195 77.7949 246.071 77.2349 246.071 76.5869C246.071 75.9389 246.195 75.3829 246.443 74.9189C246.699 74.4469 247.051 74.0869 247.499 73.8389C247.955 73.5909 248.471 73.4669 249.047 73.4669ZM253.842 72.5789C253.562 72.5789 253.346 72.5109 253.194 72.3749C253.05 72.2309 252.978 72.0309 252.978 71.7749C252.978 71.5189 253.05 71.3229 253.194 71.1869C253.346 71.0509 253.562 70.9829 253.842 70.9829C254.114 70.9829 254.322 71.0509 254.466 71.1869C254.618 71.3229 254.694 71.5189 254.694 71.7749C254.694 72.0309 254.618 72.2309 254.466 72.3749C254.322 72.5109 254.114 72.5789 253.842 72.5789ZM254.478 73.5869V79.5869H253.194V73.5869H254.478ZM259.954 75.7349C259.954 75.3349 259.842 75.0269 259.618 74.8109C259.402 74.5869 259.102 74.4749 258.718 74.4749C258.358 74.4749 258.05 74.5589 257.794 74.7269C257.538 74.8949 257.35 75.1669 257.23 75.5429L256.15 75.0869C256.302 74.5989 256.598 74.2069 257.038 73.9109C257.486 73.6149 258.062 73.4669 258.766 73.4669C259.246 73.4669 259.67 73.5469 260.038 73.7069C260.406 73.8589 260.694 74.0909 260.902 74.4029C261.118 74.7149 261.226 75.1149 261.226 75.6029V78.2789C261.226 78.5749 261.374 78.7229 261.67 78.7229C261.814 78.7229 261.954 78.7029 262.09 78.6629L262.018 79.5509C261.834 79.6389 261.602 79.6829 261.322 79.6829C261.066 79.6829 260.834 79.6389 260.626 79.5509C260.426 79.4549 260.266 79.3149 260.146 79.1309C260.034 78.9389 259.978 78.7029 259.978 78.4229V78.3389L260.242 78.3269C260.17 78.6389 260.022 78.8989 259.798 79.1069C259.574 79.3069 259.314 79.4589 259.018 79.5629C258.722 79.6589 258.422 79.7069 258.118 79.7069C257.742 79.7069 257.402 79.6469 257.098 79.5269C256.802 79.4069 256.566 79.2269 256.39 78.9869C256.222 78.7389 256.138 78.4349 256.138 78.0749C256.138 77.6269 256.282 77.2589 256.57 76.9709C256.866 76.6829 257.282 76.4869 257.818 76.3829L260.146 75.9269L260.134 76.8269L258.442 77.1749C258.106 77.2389 257.854 77.3309 257.686 77.4509C257.518 77.5709 257.434 77.7469 257.434 77.9789C257.434 78.2029 257.518 78.3829 257.686 78.5189C257.862 78.6469 258.094 78.7109 258.382 78.7109C258.582 78.7109 258.774 78.6869 258.958 78.6389C259.15 78.5909 259.322 78.5149 259.474 78.4109C259.626 78.2989 259.742 78.1589 259.822 77.9909C259.91 77.8149 259.954 77.6069 259.954 77.3669V75.7349ZM264.578 70.8869V77.9069C264.578 78.2029 264.63 78.4069 264.734 78.5189C264.838 78.6309 265.01 78.6869 265.25 78.6869C265.394 78.6869 265.514 78.6789 265.61 78.6629C265.714 78.6389 265.842 78.5989 265.994 78.5429L265.85 79.5029C265.714 79.5669 265.558 79.6149 265.382 79.6469C265.206 79.6869 265.03 79.7069 264.854 79.7069C264.318 79.7069 263.922 79.5709 263.666 79.2989C263.418 79.0189 263.294 78.5909 263.294 78.0149V70.8869H264.578ZM273.499 71.5469C274.211 71.5469 274.827 71.6829 275.347 71.9549C275.867 72.2189 276.307 72.6109 276.667 73.1309L275.803 73.9589C275.499 73.4949 275.155 73.1629 274.771 72.9629C274.395 72.7549 273.947 72.6509 273.427 72.6509C273.043 72.6509 272.727 72.7029 272.479 72.8069C272.231 72.9109 272.047 73.0509 271.927 73.2269C271.815 73.3949 271.759 73.5869 271.759 73.8029C271.759 74.0509 271.843 74.2669 272.011 74.4509C272.187 74.6349 272.511 74.7789 272.983 74.8829L274.591 75.2429C275.359 75.4109 275.903 75.6669 276.223 76.0109C276.543 76.3549 276.703 76.7909 276.703 77.3189C276.703 77.8069 276.571 78.2309 276.307 78.5909C276.043 78.9509 275.675 79.2269 275.203 79.4189C274.739 79.6109 274.191 79.7069 273.559 79.7069C272.999 79.7069 272.495 79.6349 272.047 79.4909C271.599 79.3469 271.207 79.1509 270.871 78.9029C270.535 78.6549 270.259 78.3709 270.043 78.0509L270.931 77.1629C271.099 77.4429 271.311 77.6949 271.567 77.9189C271.823 78.1349 272.119 78.3029 272.455 78.4229C272.799 78.5429 273.179 78.6029 273.595 78.6029C273.963 78.6029 274.279 78.5589 274.543 78.4709C274.815 78.3829 275.019 78.2549 275.155 78.0869C275.299 77.9109 275.371 77.7029 275.371 77.4629C275.371 77.2309 275.291 77.0269 275.131 76.8509C274.979 76.6749 274.691 76.5389 274.267 76.4429L272.527 76.0469C272.047 75.9429 271.651 75.7949 271.339 75.6029C271.027 75.4109 270.795 75.1789 270.643 74.9069C270.491 74.6269 270.415 74.3149 270.415 73.9709C270.415 73.5229 270.535 73.1189 270.775 72.7589C271.023 72.3909 271.379 72.0989 271.843 71.8829C272.307 71.6589 272.859 71.5469 273.499 71.5469ZM280.959 79.7069C280.359 79.7069 279.831 79.5829 279.375 79.3349C278.919 79.0869 278.563 78.7309 278.307 78.2669C278.059 77.7949 277.935 77.2349 277.935 76.5869C277.935 75.9389 278.059 75.3829 278.307 74.9189C278.563 74.4469 278.915 74.0869 279.363 73.8389C279.811 73.5909 280.319 73.4669 280.887 73.4669C281.471 73.4669 281.967 73.5869 282.375 73.8269C282.783 74.0669 283.095 74.3949 283.311 74.8109C283.527 75.2269 283.635 75.6989 283.635 76.2269C283.635 76.3709 283.631 76.5069 283.623 76.6349C283.615 76.7629 283.603 76.8749 283.587 76.9709H278.763V75.9869H283.023L282.387 76.1789C282.387 75.6349 282.251 75.2189 281.979 74.9309C281.707 74.6349 281.335 74.4869 280.863 74.4869C280.519 74.4869 280.219 74.5669 279.963 74.7269C279.707 74.8869 279.511 75.1269 279.375 75.4469C279.239 75.7589 279.171 76.1429 279.171 76.5989C279.171 77.0469 279.243 77.4269 279.387 77.7389C279.531 78.0509 279.735 78.2869 279.999 78.4469C280.263 78.6069 280.575 78.6869 280.935 78.6869C281.335 78.6869 281.659 78.6109 281.907 78.4589C282.155 78.3069 282.351 78.0949 282.495 77.8229L283.515 78.3029C283.371 78.5909 283.175 78.8429 282.927 79.0589C282.687 79.2669 282.399 79.4269 282.063 79.5389C281.727 79.6509 281.359 79.7069 280.959 79.7069ZM285.256 79.5869V73.5869H286.348L286.468 74.6669C286.628 74.2749 286.864 73.9789 287.176 73.7789C287.496 73.5709 287.888 73.4669 288.352 73.4669C288.472 73.4669 288.592 73.4789 288.712 73.5029C288.832 73.5189 288.932 73.5469 289.012 73.5869L288.832 74.7149C288.744 74.6829 288.644 74.6589 288.532 74.6429C288.428 74.6189 288.284 74.6069 288.1 74.6069C287.852 74.6069 287.608 74.6749 287.368 74.8109C287.128 74.9389 286.928 75.1349 286.768 75.3989C286.616 75.6629 286.54 75.9989 286.54 76.4069V79.5869H285.256ZM294.173 73.5869H295.517L293.129 79.5869H291.725L289.325 73.5869H290.729L292.433 78.4709L294.173 73.5869ZM297.259 72.5789C296.979 72.5789 296.763 72.5109 296.611 72.3749C296.467 72.2309 296.395 72.0309 296.395 71.7749C296.395 71.5189 296.467 71.3229 296.611 71.1869C296.763 71.0509 296.979 70.9829 297.259 70.9829C297.531 70.9829 297.739 71.0509 297.883 71.1869C298.035 71.3229 298.111 71.5189 298.111 71.7749C298.111 72.0309 298.035 72.2309 297.883 72.3749C297.739 72.5109 297.531 72.5789 297.259 72.5789ZM297.895 73.5869V79.5869H296.611V73.5869H297.895ZM302.496 73.4669C302.976 73.4669 303.384 73.5389 303.72 73.6829C304.064 73.8189 304.352 74.0149 304.584 74.2709C304.816 74.5269 304.992 74.8189 305.112 75.1469L303.9 75.6269C303.796 75.2589 303.628 74.9789 303.396 74.7869C303.172 74.5869 302.876 74.4869 302.508 74.4869C302.148 74.4869 301.84 74.5709 301.584 74.7389C301.328 74.8989 301.132 75.1349 300.996 75.4469C300.868 75.7589 300.804 76.1429 300.804 76.5989C300.804 77.0469 300.872 77.4269 301.008 77.7389C301.144 78.0509 301.34 78.2869 301.596 78.4469C301.852 78.6069 302.156 78.6869 302.508 78.6869C302.78 78.6869 303.016 78.6429 303.216 78.5549C303.416 78.4589 303.58 78.3269 303.708 78.1589C303.844 77.9829 303.936 77.7709 303.984 77.5229L305.148 77.9189C305.036 78.2789 304.86 78.5949 304.62 78.8669C304.388 79.1309 304.096 79.3389 303.744 79.4909C303.392 79.6349 302.988 79.7069 302.532 79.7069C301.94 79.7069 301.416 79.5829 300.96 79.3349C300.504 79.0869 300.148 78.7309 299.892 78.2669C299.644 77.7949 299.52 77.2349 299.52 76.5869C299.52 75.9389 299.644 75.3829 299.892 74.9189C300.148 74.4469 300.5 74.0869 300.948 73.8389C301.404 73.5909 301.92 73.4669 302.496 73.4669ZM309.283 79.7069C308.683 79.7069 308.155 79.5829 307.699 79.3349C307.243 79.0869 306.887 78.7309 306.631 78.2669C306.383 77.7949 306.259 77.2349 306.259 76.5869C306.259 75.9389 306.383 75.3829 306.631 74.9189C306.887 74.4469 307.239 74.0869 307.687 73.8389C308.135 73.5909 308.643 73.4669 309.211 73.4669C309.795 73.4669 310.291 73.5869 310.699 73.8269C311.107 74.0669 311.419 74.3949 311.635 74.8109C311.851 75.2269 311.959 75.6989 311.959 76.2269C311.959 76.3709 311.955 76.5069 311.947 76.6349C311.939 76.7629 311.927 76.8749 311.911 76.9709H307.087V75.9869H311.347L310.711 76.1789C310.711 75.6349 310.575 75.2189 310.303 74.9309C310.031 74.6349 309.659 74.4869 309.187 74.4869C308.843 74.4869 308.543 74.5669 308.287 74.7269C308.031 74.8869 307.835 75.1269 307.699 75.4469C307.563 75.7589 307.495 76.1429 307.495 76.5989C307.495 77.0469 307.567 77.4269 307.711 77.7389C307.855 78.0509 308.059 78.2869 308.323 78.4469C308.587 78.6069 308.899 78.6869 309.259 78.6869C309.659 78.6869 309.983 78.6109 310.231 78.4589C310.479 78.3069 310.675 78.0949 310.819 77.8229L311.839 78.3029C311.695 78.5909 311.499 78.8429 311.251 79.0589C311.011 79.2669 310.723 79.4269 310.387 79.5389C310.051 79.6509 309.683 79.7069 309.283 79.7069ZM315.86 79.7069C315.26 79.7069 314.712 79.5909 314.216 79.3589C313.72 79.1269 313.328 78.7989 313.04 78.3749L313.928 77.6069C314.104 77.9349 314.356 78.1989 314.684 78.3989C315.02 78.5909 315.42 78.6869 315.884 78.6869C316.252 78.6869 316.544 78.6229 316.76 78.4949C316.976 78.3669 317.084 78.1869 317.084 77.9549C317.084 77.8029 317.032 77.6709 316.928 77.5589C316.832 77.4389 316.644 77.3469 316.364 77.2829L315.104 77.0189C314.464 76.8909 314.008 76.6869 313.736 76.4069C313.464 76.1189 313.328 75.7549 313.328 75.3149C313.328 74.9869 313.424 74.6829 313.616 74.4029C313.808 74.1229 314.088 73.8989 314.456 73.7309C314.832 73.5549 315.28 73.4669 315.8 73.4669C316.4 73.4669 316.912 73.5749 317.336 73.7909C317.76 73.9989 318.084 74.2989 318.308 74.6909L317.42 75.4349C317.268 75.1149 317.044 74.8789 316.748 74.7269C316.452 74.5669 316.144 74.4869 315.824 74.4869C315.568 74.4869 315.348 74.5189 315.164 74.5829C314.98 74.6469 314.84 74.7349 314.744 74.8469C314.648 74.9589 314.6 75.0909 314.6 75.2429C314.6 75.4029 314.66 75.5429 314.78 75.6629C314.9 75.7829 315.116 75.8749 315.428 75.9389L316.796 76.2269C317.372 76.3389 317.776 76.5309 318.008 76.8029C318.248 77.0669 318.368 77.3909 318.368 77.7749C318.368 78.1589 318.268 78.4989 318.068 78.7949C317.868 79.0829 317.58 79.3069 317.204 79.4669C316.828 79.6269 316.38 79.7069 315.86 79.7069Z" fill="white"/>
</svg>
