<svg width="36" height="36" viewBox="0 0 36 36" fill="none" xmlns="http://www.w3.org/2000/svg">
<path d="M17.5056 32.4646L32.2587 19.5829C32.4999 19.3723 32.5248 19.006 32.3141 18.7648L19.2903 3.84883C19.0797 3.60761 18.7134 3.58281 18.4722 3.79343L3.71906 16.6751C3.47784 16.8857 3.45303 17.252 3.66365 17.4932L16.6874 32.4091C16.8981 32.6504 17.2644 32.6752 17.5056 32.4646Z" fill="#052541"/>
<path d="M8.93393 26.4814L25.8574 27.6119C26.1289 27.63 26.3638 27.4246 26.3819 27.1531L27.5248 10.0431C27.543 9.77155 27.3376 9.53675 27.066 9.51861L10.1425 8.38814C9.87103 8.37 9.63622 8.5754 9.61809 8.84691L8.47515 25.957C8.45702 26.2285 8.66242 26.4633 8.93393 26.4814Z" fill="#FB9F28" stroke="#FB9F28" stroke-width="0.289916"/>
<path d="M17.2187 17.7447L16.342 19.5167H15.9106L15.0386 17.7447V19.7857H13.865V19.5862H14.3149V16.5433H15.2937L16.1287 18.3245L16.9682 16.5433H17.9424V19.5862H18.3923V19.7857H17.2187V17.7447ZM22.2707 19.5862V19.7857H21.0507L20.7492 19.0853H19.3901L19.0886 19.7857H17.8686V19.5862H18.4021L19.7194 16.5433H20.4199L21.7326 19.5862H22.2707ZM20.072 17.5081L19.6638 18.4498H20.4755L20.072 17.5081Z" fill="white"/>
</svg>
