<svg width="30" height="31" viewBox="0 0 30 31" fill="none" xmlns="http://www.w3.org/2000/svg">
<path d="M7.5 9.34503H13.75C14.0815 9.34503 14.3995 9.47673 14.6339 9.71115C14.8683 9.94557 15 10.2635 15 10.595C15 10.9266 14.8683 11.2445 14.6339 11.4789C14.3995 11.7133 14.0815 11.845 13.75 11.845H7.5C7.16848 11.845 6.85054 11.7133 6.61612 11.4789C6.3817 11.2445 6.25 10.9266 6.25 10.595C6.25 10.2635 6.3817 9.94557 6.61612 9.71115C6.85054 9.47673 7.16848 9.34503 7.5 9.34503ZM16.25 19.345H22.5C22.8315 19.345 23.1495 19.4767 23.3839 19.7111C23.6183 19.9456 23.75 20.2635 23.75 20.595C23.75 20.9266 23.6183 21.2445 23.3839 21.4789C23.1495 21.7133 22.8315 21.845 22.5 21.845H16.25C15.9185 21.845 15.6005 21.7133 15.3661 21.4789C15.1317 21.2445 15 20.9266 15 20.595C15 20.2635 15.1317 19.9456 15.3661 19.7111C15.6005 19.4767 15.9185 19.345 16.25 19.345ZM7.5 14.345H22.5C22.8315 14.345 23.1495 14.4767 23.3839 14.7111C23.6183 14.9456 23.75 15.2635 23.75 15.595C23.75 15.9266 23.6183 16.2445 23.3839 16.4789C23.1495 16.7133 22.8315 16.845 22.5 16.845H7.5C7.16848 16.845 6.85054 16.7133 6.61612 16.4789C6.3817 16.2445 6.25 15.9266 6.25 15.595C6.25 15.2635 6.3817 14.9456 6.61612 14.7111C6.85054 14.4767 7.16848 14.345 7.5 14.345Z" fill="#1F2C51"/>
</svg>
