<svg width="1219" height="478" viewBox="0 0 1219 478" fill="none" xmlns="http://www.w3.org/2000/svg">
<g filter="url(#filter0_d_2001_243)">
<path d="M1192 339.492C1138.08 374.512 1012.48 440.549 941.474 424.54C852.723 404.529 830.816 301.471 693.757 277.457C556.699 253.444 437.053 336.991 330.889 216.423C224.724 95.8548 169.676 3.0055 27 20.0151" stroke="#F57059" stroke-width="5" stroke-linecap="round" stroke-linejoin="round"/>
</g>
<rect x="899" y="412" width="64" height="64" rx="20" fill="white"/>
<rect x="919" y="432" width="23" height="23" rx="10" fill="#C4C4C4"/>
<rect x="397" y="252" width="64" height="64" rx="20" fill="white"/>
<rect x="417" y="272" width="23" height="23" rx="10" fill="#C4C4C4"/>
<rect x="17" y="-0.00012207" width="64" height="64" rx="20" fill="white"/>
<rect x="37" y="19.9999" width="23" height="23" rx="10" fill="#C4C4C4"/>
<defs>
<filter id="filter0_d_2001_243" x="0.499756" y="15.5002" width="1218" height="462" filterUnits="userSpaceOnUse" color-interpolation-filters="sRGB">
<feFlood flood-opacity="0" result="BackgroundImageFix"/>
<feColorMatrix in="SourceAlpha" type="matrix" values="0 0 0 0 0 0 0 0 0 0 0 0 0 0 0 0 0 0 127 0" result="hardAlpha"/>
<feOffset dy="24"/>
<feGaussianBlur stdDeviation="12"/>
<feComposite in2="hardAlpha" operator="out"/>
<feColorMatrix type="matrix" values="0 0 0 0 0.215686 0 0 0 0 0.203922 0 0 0 0 0.662745 0 0 0 0.3 0"/>
<feBlend mode="normal" in2="BackgroundImageFix" result="effect1_dropShadow_2001_243"/>
<feBlend mode="normal" in="SourceGraphic" in2="effect1_dropShadow_2001_243" result="shape"/>
</filter>
</defs>
</svg>
