<svg width="32" height="31" viewBox="0 0 32 31" fill="none" xmlns="http://www.w3.org/2000/svg">
<rect y="0.5" width="32" height="30" rx="5" fill="#DDF6FF"/>
<path d="M10.4 8.26001C11.8903 6.7995 13.8968 5.98614 15.9834 5.99668C18.0701 6.00722 20.0682 6.84081 21.5437 8.3163C23.0192 9.79179 23.8528 11.79 23.8633 13.8766C23.8739 15.9632 23.0605 17.9697 21.6 19.46L17.414 23.646C17.0389 24.021 16.5303 24.2316 16 24.2316C15.4697 24.2316 14.9611 24.021 14.586 23.646L10.4 19.46C8.91488 17.9747 8.08057 15.9604 8.08057 13.86C8.08057 11.7596 8.91488 9.74528 10.4 8.26001Z" stroke="#157292" stroke-width="1.5" stroke-linejoin="round"/>
<path d="M16 16.86C17.6569 16.86 19 15.5168 19 13.86C19 12.2031 17.6569 10.86 16 10.86C14.3431 10.86 13 12.2031 13 13.86C13 15.5168 14.3431 16.86 16 16.86Z" stroke="#157292" stroke-width="1.5" stroke-linecap="round" stroke-linejoin="round"/>
</svg>
