<svg width="171" height="67" viewBox="0 0 171 67" fill="none" xmlns="http://www.w3.org/2000/svg">
<path d="M32.3502 59.9938L59.6137 36.1887C60.0595 35.7995 60.1053 35.1226 59.7161 34.6769L35.6484 7.11255C35.2592 6.66677 34.5823 6.62093 34.1365 7.01016L6.87302 30.8152C6.42725 31.2044 6.38141 31.8813 6.77063 32.3271L30.8383 59.8914C31.2275 60.3372 31.9044 60.383 32.3502 59.9938Z" fill="#052541"/>
<path d="M16.5097 48.937L47.784 51.0261C48.2857 51.0597 48.7197 50.6801 48.7532 50.1783L50.8653 18.5593C50.8988 18.0576 50.5192 17.6237 50.0175 17.5902L18.7432 15.5011C18.2415 15.4676 17.8075 15.8471 17.774 16.3489L15.6619 47.9679C15.6284 48.4696 16.008 48.9035 16.5097 48.937Z" fill="#FB9F28" stroke="#FB9F28" stroke-width="0.535758"/>
<path d="M31.8197 31.5519L30.1996 34.8265H29.4024L27.7908 31.5519V35.3237H25.6221V34.9551H26.4536V29.3318H28.2623L29.8053 32.6234L31.3568 29.3318H33.157V34.9551H33.9885V35.3237H31.8197V31.5519ZM41.1556 34.9551V35.3237H38.9012L38.344 34.0293H35.8323L35.2752 35.3237H33.0207V34.9551H34.0065L36.441 29.3318H37.7354L40.1613 34.9551H41.1556ZM37.0925 31.1148L36.3381 32.8549H37.8382L37.0925 31.1148Z" fill="white"/>
<path d="M77.6796 26.681L75.8569 30.3649H74.9601L73.1471 26.681V30.9242H70.7072V30.5095H71.6426V24.1833H73.6775L75.4133 27.8864L77.1588 24.1833H79.184V30.5095H80.1194V30.9242H77.6796V26.681ZM83.1774 30.5095V30.9242H80.0143V30.5095H80.8437V24.1833H82.3481V30.5095H83.1774ZM90.2763 30.5095V30.9242H83.1786V30.5095H85.252C84.7377 30.2074 84.3326 29.7991 84.0369 29.2848C83.7476 28.764 83.6029 28.1758 83.6029 27.52C83.6029 26.5299 83.9437 25.7006 84.6252 25.0319C85.3131 24.3633 86.1521 24.029 87.1422 24.029C88.248 24.029 89.1738 24.4501 89.9195 25.2923L88.9841 26.3531C88.5083 25.7616 87.9169 25.4659 87.2097 25.4659C86.6439 25.4659 86.1585 25.6523 85.7535 26.0252C85.3549 26.3917 85.1556 26.8899 85.1556 27.52C85.1556 28.1436 85.3452 28.6451 85.7245 29.0244C86.1039 29.4037 86.5635 29.5934 87.1036 29.5934C87.8429 29.5934 88.4473 29.3008 88.9166 28.7158L89.881 29.7091C89.5981 30.037 89.2798 30.3038 88.9262 30.5095H90.2763ZM97.628 30.5095V30.9242H95.2942V28.2722H92.6133V30.9242H90.2795V30.5095H91.1089V24.1833H92.6133V26.9992H95.2942V24.1833H96.7986V30.5095H97.628ZM98.4546 30.5095V24.1833H103.315V25.5238H99.959V26.9124H102.977V28.195H99.959V29.5934H103.421V30.5095H104.357V30.9242H97.5192V30.5095H98.4546ZM112.103 30.5095V30.9242H109.567L108.94 29.468H106.115L105.488 30.9242H102.951V30.5095H104.06L106.799 24.1833H108.255L110.985 30.5095H112.103ZM107.532 26.1892L106.683 28.1468H108.371L107.532 26.1892ZM117.264 30.5095V30.9242H111.015V30.5095H111.95V24.1833H113.454V29.5837H116.328V30.5095H117.264ZM119.148 30.5095V30.9242H116.602V30.5095H119.148ZM127.313 30.5095V30.9242H124.776L124.15 29.468H121.324L120.697 30.9242H118.161V30.5095H119.27L122.009 24.1833H123.465L126.194 30.5095H127.313ZM122.742 26.1892L121.893 28.1468H123.581L122.742 26.1892ZM132.473 30.5095V30.9242H126.224V30.5095H127.16V24.1833H128.664V29.5837H131.538V30.5095H132.473ZM139.979 30.5095V30.9242H137.443L136.816 29.468H133.991L133.364 30.9242H130.828V30.5095H131.937L134.675 24.1833H136.132L138.861 30.5095H139.979ZM135.408 26.1892L134.56 28.1468H136.247L135.408 26.1892ZM146.23 30.5095V30.9242H138.997V30.5095H141.09C140.575 30.2074 140.17 29.7991 139.874 29.2848C139.585 28.764 139.44 28.1758 139.44 27.52C139.44 26.5299 139.781 25.7006 140.463 25.0319C141.151 24.3633 141.977 24.029 142.941 24.029C143.912 24.029 144.754 24.3472 145.468 24.9837L144.687 26.112C144.384 25.8484 144.105 25.6684 143.848 25.572C143.597 25.4691 143.324 25.4177 143.028 25.4177C142.456 25.4177 141.974 25.6138 141.581 26.0059C141.189 26.3917 140.993 26.9028 140.993 27.5393C140.993 28.1758 141.18 28.6869 141.552 29.0726C141.932 29.4519 142.382 29.6416 142.903 29.6416C143.423 29.6416 143.857 29.5419 144.204 29.3426V27.4911H145.718V29.8827C145.5 30.127 145.24 30.3359 144.937 30.5095H146.23ZM153.038 30.5095V30.9242H146.124V30.5095H147.059V24.1833H149.682C150.138 24.1833 150.531 24.2379 150.859 24.3472C151.193 24.4565 151.444 24.6044 151.611 24.7908C151.913 25.138 152.064 25.5302 152.064 25.9674C152.064 26.4945 151.894 26.8867 151.553 27.1439C151.437 27.2339 151.357 27.2918 151.312 27.3175C151.267 27.3368 151.186 27.3721 151.071 27.4236C151.489 27.5136 151.82 27.7032 152.064 27.9925C152.315 28.2754 152.44 28.629 152.44 29.0533C152.44 29.6898 152.189 30.1752 151.688 30.5095H153.038ZM148.563 29.6512H149.595C150.026 29.6512 150.347 29.5998 150.56 29.4969C150.778 29.3876 150.887 29.1787 150.887 28.8701C150.887 28.5551 150.772 28.3493 150.54 28.2529C150.315 28.15 149.952 28.0986 149.451 28.0986H148.563V29.6512ZM148.563 26.9124H149.277C149.695 26.9124 150.003 26.8674 150.203 26.7774C150.408 26.6874 150.511 26.4945 150.511 26.1988C150.511 25.8966 150.418 25.6973 150.232 25.6009C150.045 25.5045 149.73 25.4562 149.287 25.4562H148.563V26.9124ZM153.868 30.5095V24.1833H158.728V25.5238H155.372V26.9124H158.391V28.195H155.372V29.5934H158.834V30.5095H159.77V30.9242H152.932V30.5095H153.868Z" fill="#052541"/>
<path d="M74.9665 42.603H74.24L73.835 41.4907H72.0541L71.6491 42.603H70.9419L72.5427 38.3598H73.3656L74.9665 42.603ZM72.247 40.9314H73.6421L72.9478 38.9512L72.247 40.9314ZM76.9421 39.3241C77.1993 39.3241 77.4179 39.3627 77.5979 39.4399C77.7822 39.5127 77.9365 39.6177 78.0608 39.7549C78.1851 39.892 78.2794 40.0485 78.3437 40.2242L77.6943 40.4814C77.6386 40.2842 77.5486 40.1342 77.4243 40.0313C77.3043 39.9242 77.1457 39.8706 76.9486 39.8706C76.7557 39.8706 76.5907 39.9156 76.4535 40.0056C76.3164 40.0913 76.2114 40.2178 76.1385 40.3849C76.0699 40.5521 76.0356 40.7578 76.0356 41.0021C76.0356 41.2421 76.0721 41.4457 76.1449 41.6129C76.2178 41.78 76.3228 41.9065 76.4599 41.9922C76.5971 42.0779 76.76 42.1208 76.9486 42.1208C77.0943 42.1208 77.2207 42.0972 77.3279 42.0501C77.435 41.9986 77.5229 41.9279 77.5915 41.8379C77.6643 41.7436 77.7136 41.63 77.7393 41.4972L78.363 41.7093C78.303 41.9022 78.2087 42.0715 78.0801 42.2172C77.9558 42.3587 77.7993 42.4701 77.6108 42.5515C77.4222 42.6287 77.2057 42.6673 76.9614 42.6673C76.6442 42.6673 76.3635 42.6008 76.1192 42.468C75.8749 42.3351 75.6842 42.1444 75.547 41.8958C75.4141 41.6429 75.3477 41.3429 75.3477 40.9957C75.3477 40.6485 75.4141 40.3506 75.547 40.102C75.6842 39.8492 75.8728 39.6563 76.1128 39.5234C76.3571 39.3906 76.6335 39.3241 76.9421 39.3241ZM80.5522 39.3241C80.8094 39.3241 81.028 39.3627 81.208 39.4399C81.3923 39.5127 81.5466 39.6177 81.6709 39.7549C81.7952 39.892 81.8895 40.0485 81.9538 40.2242L81.3044 40.4814C81.2487 40.2842 81.1587 40.1342 81.0344 40.0313C80.9144 39.9242 80.7558 39.8706 80.5586 39.8706C80.3658 39.8706 80.2008 39.9156 80.0636 40.0056C79.9265 40.0913 79.8214 40.2178 79.7486 40.3849C79.68 40.5521 79.6457 40.7578 79.6457 41.0021C79.6457 41.2421 79.6821 41.4457 79.755 41.6129C79.8279 41.78 79.9329 41.9065 80.07 41.9922C80.2072 42.0779 80.3701 42.1208 80.5586 42.1208C80.7044 42.1208 80.8308 42.0972 80.938 42.0501C81.0451 41.9986 81.133 41.9279 81.2016 41.8379C81.2744 41.7436 81.3237 41.63 81.3494 41.4972L81.973 41.7093C81.913 41.9022 81.8187 42.0715 81.6902 42.2172C81.5659 42.3587 81.4094 42.4701 81.2208 42.5515C81.0323 42.6287 80.8158 42.6673 80.5715 42.6673C80.2543 42.6673 79.9736 42.6008 79.7293 42.468C79.485 42.3351 79.2943 42.1444 79.1571 41.8958C79.0242 41.6429 78.9578 41.3429 78.9578 40.9957C78.9578 40.6485 79.0242 40.3506 79.1571 40.102C79.2943 39.8492 79.4828 39.6563 79.7229 39.5234C79.9672 39.3906 80.2436 39.3241 80.5522 39.3241ZM84.1687 39.3241C84.4816 39.3241 84.7581 39.3906 84.9981 39.5234C85.2381 39.6563 85.4245 39.8492 85.5574 40.102C85.6946 40.3506 85.7631 40.6485 85.7631 40.9957C85.7631 41.3429 85.6946 41.6429 85.5574 41.8958C85.4245 42.1444 85.2381 42.3351 84.9981 42.468C84.7581 42.6008 84.4816 42.6673 84.1687 42.6673C83.8558 42.6673 83.5794 42.6008 83.3394 42.468C83.0994 42.3351 82.9108 42.1444 82.7736 41.8958C82.6365 41.6429 82.5679 41.3429 82.5679 40.9957C82.5679 40.6485 82.6365 40.3506 82.7736 40.102C82.9108 39.8492 83.0994 39.6563 83.3394 39.5234C83.5794 39.3906 83.8558 39.3241 84.1687 39.3241ZM84.1687 39.8642C83.9759 39.8642 83.8108 39.9092 83.6737 39.9992C83.5408 40.0849 83.438 40.2113 83.3651 40.3785C83.2922 40.5457 83.2558 40.7514 83.2558 40.9957C83.2558 41.2357 83.2922 41.4414 83.3651 41.6129C83.438 41.78 83.5408 41.9086 83.6737 41.9986C83.8108 42.0844 83.9759 42.1272 84.1687 42.1272C84.3616 42.1272 84.5245 42.0844 84.6573 41.9986C84.7902 41.9086 84.8931 41.78 84.9659 41.6129C85.0388 41.4414 85.0752 41.2357 85.0752 40.9957C85.0752 40.7514 85.0388 40.5457 84.9659 40.3785C84.8931 40.2113 84.7902 40.0849 84.6573 39.9992C84.5245 39.9092 84.3616 39.8642 84.1687 39.8642ZM87.7729 42.6673C87.5629 42.6673 87.3679 42.6287 87.1879 42.5515C87.0122 42.4744 86.8707 42.3501 86.7636 42.1786C86.6564 42.0072 86.6028 41.7843 86.6028 41.51V39.3884H87.2908V41.3364C87.2908 41.6279 87.3529 41.8293 87.4772 41.9408C87.6015 42.0479 87.7751 42.1015 87.998 42.1015C88.1051 42.1015 88.208 42.0844 88.3066 42.0501C88.4094 42.0115 88.5016 41.9536 88.583 41.8765C88.6644 41.795 88.7266 41.6922 88.7695 41.5679C88.8166 41.4436 88.8402 41.2979 88.8402 41.1307V39.3884H89.5281V42.603H88.9238L88.8916 42.0822C88.7802 42.2837 88.6302 42.4315 88.4416 42.5258C88.253 42.6201 88.0301 42.6673 87.7729 42.6673ZM90.6028 42.603V39.3884H91.2136L91.2586 40.2242L91.1686 40.1342C91.2286 39.9499 91.3143 39.7977 91.4257 39.6777C91.5414 39.5534 91.6765 39.4634 91.8308 39.4077C91.9893 39.352 92.1565 39.3241 92.3322 39.3241C92.5594 39.3241 92.763 39.3691 92.943 39.4591C93.1273 39.5449 93.273 39.6756 93.3802 39.8513C93.4873 40.027 93.5409 40.2499 93.5409 40.5199V42.603H92.853V40.7321C92.853 40.4149 92.7865 40.1963 92.6537 40.0763C92.5251 39.952 92.3622 39.8899 92.1651 39.8899C92.0236 39.8899 91.8865 39.9242 91.7536 39.9928C91.6207 40.057 91.5093 40.1621 91.4193 40.3078C91.3336 40.4535 91.2907 40.6485 91.2907 40.8928V42.603H90.6028ZM95.4843 38.4433V41.6386C95.4843 41.7972 95.525 41.9129 95.6064 41.9858C95.6922 42.0586 95.8057 42.0951 95.9472 42.0951C96.0629 42.0951 96.1636 42.0779 96.2494 42.0436C96.3351 42.0051 96.4144 41.9536 96.4872 41.8893L96.6415 42.3908C96.5429 42.4765 96.4208 42.5451 96.2751 42.5965C96.1336 42.6437 95.975 42.6673 95.7993 42.6673C95.615 42.6673 95.4457 42.6373 95.2914 42.5772C95.1371 42.5172 95.0171 42.4208 94.9314 42.2879C94.8457 42.1508 94.8007 41.9729 94.7964 41.7543V38.6362L95.4843 38.4433ZM96.5901 39.3884V39.9285H94.1792V39.3884H96.5901ZM97.6176 38.8484C97.4676 38.8484 97.3519 38.8119 97.2705 38.7391C97.1933 38.6619 97.1547 38.5548 97.1547 38.4176C97.1547 38.2805 97.1933 38.1755 97.2705 38.1026C97.3519 38.0297 97.4676 37.9933 97.6176 37.9933C97.7634 37.9933 97.8748 38.0297 97.952 38.1026C98.0334 38.1755 98.0741 38.2805 98.0741 38.4176C98.0741 38.5548 98.0334 38.6619 97.952 38.7391C97.8748 38.8119 97.7634 38.8484 97.6176 38.8484ZM97.9584 39.3884V42.603H97.2705V39.3884H97.9584ZM99.0347 42.603V39.3884H99.6455L99.6905 40.2242L99.6005 40.1342C99.6605 39.9499 99.7462 39.7977 99.8576 39.6777C99.9734 39.5534 100.108 39.4634 100.263 39.4077C100.421 39.352 100.588 39.3241 100.764 39.3241C100.991 39.3241 101.195 39.3691 101.375 39.4591C101.559 39.5449 101.705 39.6756 101.812 39.8513C101.919 40.027 101.973 40.2499 101.973 40.5199V42.603H101.285V40.7321C101.285 40.4149 101.218 40.1963 101.086 40.0763C100.957 39.952 100.794 39.8899 100.597 39.8899C100.456 39.8899 100.318 39.9242 100.186 39.9928C100.053 40.057 99.9412 40.1621 99.8512 40.3078C99.7655 40.4535 99.7226 40.6485 99.7226 40.8928V42.603H99.0347ZM105.844 38.7134L105.953 39.2534C105.94 39.2534 105.928 39.2534 105.915 39.2534C105.902 39.2491 105.889 39.247 105.876 39.247C105.67 39.247 105.514 39.292 105.407 39.382C105.3 39.4677 105.246 39.5941 105.246 39.7613L104.912 39.607C104.912 39.4356 104.948 39.2834 105.021 39.1505C105.094 39.0134 105.197 38.9062 105.33 38.8291C105.467 38.7519 105.621 38.7134 105.793 38.7134C105.801 38.7134 105.81 38.7134 105.818 38.7134C105.827 38.7134 105.835 38.7134 105.844 38.7134ZM104.828 42.1015C105.154 42.1015 105.407 42.1744 105.587 42.3201C105.767 42.4615 105.857 42.6587 105.857 42.9116C105.857 43.1344 105.786 43.3252 105.645 43.4838C105.503 43.6466 105.31 43.7709 105.066 43.8566C104.826 43.9424 104.55 43.9852 104.237 43.9852C103.71 43.9852 103.32 43.9038 103.067 43.7409C102.814 43.578 102.687 43.3745 102.687 43.1302C102.687 42.9587 102.747 42.8087 102.867 42.6801C102.992 42.5515 103.2 42.4787 103.491 42.4615L103.452 42.5644C103.272 42.5258 103.127 42.4572 103.015 42.3587C102.908 42.2558 102.854 42.1122 102.854 41.9279C102.854 41.7436 102.925 41.5872 103.067 41.4586C103.208 41.33 103.407 41.255 103.665 41.2336L104.025 41.4072H103.947C103.75 41.4243 103.611 41.4693 103.53 41.5422C103.448 41.615 103.407 41.6965 103.407 41.7865C103.407 41.8936 103.446 41.9729 103.523 42.0243C103.605 42.0758 103.718 42.1015 103.864 42.1015H104.828ZM104.237 43.4709C104.472 43.4709 104.665 43.4473 104.815 43.4002C104.97 43.3573 105.083 43.2995 105.156 43.2266C105.233 43.158 105.272 43.0809 105.272 42.9951C105.272 42.8966 105.231 42.8173 105.15 42.7573C105.073 42.6973 104.931 42.6673 104.725 42.6673H103.69C103.57 42.6673 103.47 42.6973 103.388 42.7573C103.307 42.8216 103.266 42.9073 103.266 43.0144C103.266 43.1559 103.352 43.2673 103.523 43.3487C103.695 43.4302 103.932 43.4709 104.237 43.4709ZM104.211 39.3241C104.494 39.3241 104.738 39.3691 104.944 39.4591C105.154 39.5491 105.315 39.6756 105.426 39.8385C105.542 40.0013 105.6 40.1921 105.6 40.4106C105.6 40.6292 105.542 40.82 105.426 40.9828C105.315 41.1457 105.154 41.2721 104.944 41.3622C104.738 41.4522 104.494 41.4972 104.211 41.4972C103.765 41.4972 103.422 41.3986 103.182 41.2014C102.947 41 102.829 40.7364 102.829 40.4106C102.829 40.1921 102.887 40.0013 103.002 39.8385C103.118 39.6756 103.279 39.5491 103.485 39.4591C103.695 39.3691 103.937 39.3241 104.211 39.3241ZM104.211 39.8063C104.014 39.8063 103.849 39.862 103.716 39.9735C103.587 40.0806 103.523 40.2263 103.523 40.4106C103.523 40.5949 103.587 40.7428 103.716 40.8543C103.849 40.9657 104.014 41.0214 104.211 41.0214C104.412 41.0214 104.577 40.9657 104.706 40.8543C104.839 40.7428 104.905 40.5949 104.905 40.4106C104.905 40.2263 104.839 40.0806 104.706 39.9735C104.577 39.862 104.412 39.8063 104.211 39.8063ZM109.703 42.6673C109.416 42.6673 109.167 42.6201 108.957 42.5258C108.751 42.4272 108.591 42.2922 108.475 42.1208C108.364 41.9493 108.308 41.7479 108.308 41.5164C108.308 41.3836 108.325 41.2571 108.359 41.1371C108.398 41.0128 108.458 40.895 108.539 40.7835C108.625 40.6678 108.741 40.5628 108.886 40.4685C109.032 40.3699 109.214 40.2842 109.433 40.2113L109.684 40.102C109.855 40.0035 109.992 39.9135 110.095 39.832C110.202 39.7506 110.279 39.6649 110.327 39.5749C110.378 39.4849 110.404 39.3798 110.404 39.2598C110.404 39.1184 110.361 39.0091 110.275 38.932C110.189 38.8548 110.076 38.8162 109.934 38.8162C109.767 38.8162 109.641 38.8634 109.555 38.9577C109.474 39.0477 109.433 39.157 109.433 39.2856C109.433 39.3627 109.444 39.4377 109.465 39.5106C109.491 39.5834 109.538 39.6734 109.607 39.7806C109.679 39.8877 109.784 40.0292 109.922 40.2049C110.059 40.3764 110.245 40.6035 110.481 40.8864C110.712 41.165 110.905 41.3922 111.06 41.5679C111.218 41.7393 111.353 41.87 111.465 41.9601C111.576 42.0458 111.679 42.1036 111.773 42.1336C111.872 42.1594 111.981 42.1701 112.101 42.1658L111.985 42.6673C111.848 42.6673 111.72 42.6523 111.6 42.6223C111.484 42.5965 111.357 42.5365 111.22 42.4422C111.087 42.3479 110.929 42.2065 110.745 42.0179C110.564 41.8293 110.342 41.5786 110.076 41.2657C109.827 40.9743 109.619 40.73 109.452 40.5328C109.289 40.3314 109.161 40.1621 109.067 40.0249C108.976 39.8835 108.912 39.757 108.874 39.6456C108.835 39.5299 108.816 39.4077 108.816 39.2791C108.816 39.1205 108.856 38.9662 108.938 38.8162C109.019 38.6619 109.142 38.5376 109.304 38.4433C109.472 38.3448 109.688 38.2955 109.954 38.2955C110.168 38.2955 110.35 38.334 110.5 38.4112C110.65 38.4883 110.766 38.5955 110.847 38.7327C110.929 38.8655 110.97 39.0198 110.97 39.1955C110.97 39.3584 110.94 39.5106 110.88 39.652C110.82 39.7935 110.712 39.9285 110.558 40.057C110.408 40.1856 110.194 40.3121 109.915 40.4364L109.703 40.5264C109.506 40.6249 109.352 40.7192 109.24 40.8092C109.129 40.8993 109.049 40.9957 109.002 41.0986C108.955 41.1971 108.931 41.3171 108.931 41.4586C108.931 41.6043 108.968 41.7308 109.041 41.8379C109.118 41.9408 109.221 42.0201 109.349 42.0758C109.478 42.1315 109.622 42.1594 109.78 42.1594C110.007 42.1594 110.2 42.1208 110.359 42.0436C110.517 41.9622 110.665 41.8508 110.802 41.7093L110.892 41.6129C110.995 41.45 111.075 41.2657 111.13 41.06C111.19 40.8543 111.21 40.6207 111.188 40.3592L111.722 40.3914C111.73 40.6657 111.694 40.9314 111.612 41.1886C111.535 41.4457 111.415 41.6772 111.252 41.8829L111.124 42.0243C110.97 42.2215 110.775 42.3779 110.539 42.4937C110.303 42.6094 110.024 42.6673 109.703 42.6673ZM117.881 38.9512H115.503V40.1856H117.367V40.7771H115.503V42.603H114.815V38.3598H117.881V38.9512ZM118.996 38.8484C118.846 38.8484 118.73 38.8119 118.648 38.7391C118.571 38.6619 118.533 38.5548 118.533 38.4176C118.533 38.2805 118.571 38.1755 118.648 38.1026C118.73 38.0297 118.846 37.9933 118.996 37.9933C119.141 37.9933 119.253 38.0297 119.33 38.1026C119.411 38.1755 119.452 38.2805 119.452 38.4176C119.452 38.5548 119.411 38.6619 119.33 38.7391C119.253 38.8119 119.141 38.8484 118.996 38.8484ZM119.336 39.3884V42.603H118.648V39.3884H119.336ZM120.413 42.603V39.3884H121.023L121.068 40.2242L120.978 40.1342C121.038 39.9499 121.124 39.7977 121.236 39.6777C121.351 39.5534 121.486 39.4634 121.641 39.4077C121.799 39.352 121.966 39.3241 122.142 39.3241C122.369 39.3241 122.573 39.3691 122.753 39.4591C122.937 39.5449 123.083 39.6756 123.19 39.8513C123.297 40.027 123.351 40.2499 123.351 40.5199V42.603H122.663V40.7321C122.663 40.4149 122.596 40.1963 122.464 40.0763C122.335 39.952 122.172 39.8899 121.975 39.8899C121.834 39.8899 121.696 39.9242 121.564 39.9928C121.431 40.057 121.319 40.1621 121.229 40.3078C121.143 40.4535 121.101 40.6485 121.101 40.8928V42.603H120.413ZM126.251 40.5392C126.251 40.3249 126.191 40.1599 126.071 40.0442C125.955 39.9242 125.795 39.8642 125.589 39.8642C125.396 39.8642 125.231 39.9092 125.094 39.9992C124.957 40.0892 124.856 40.2349 124.792 40.4364L124.213 40.1921C124.295 39.9306 124.453 39.7206 124.689 39.562C124.929 39.4034 125.238 39.3241 125.615 39.3241C125.872 39.3241 126.099 39.367 126.296 39.4527C126.493 39.5341 126.648 39.6584 126.759 39.8256C126.875 39.9928 126.933 40.2071 126.933 40.4685V41.9022C126.933 42.0608 127.012 42.1401 127.171 42.1401C127.248 42.1401 127.323 42.1294 127.396 42.1079L127.357 42.5837C127.258 42.6308 127.134 42.6544 126.984 42.6544C126.847 42.6544 126.723 42.6308 126.611 42.5837C126.504 42.5322 126.418 42.4572 126.354 42.3587C126.294 42.2558 126.264 42.1294 126.264 41.9793V41.9343L126.406 41.9279C126.367 42.0951 126.288 42.2344 126.168 42.3458C126.048 42.453 125.908 42.5344 125.75 42.5901C125.591 42.6415 125.43 42.6673 125.268 42.6673C125.066 42.6673 124.884 42.6351 124.721 42.5708C124.563 42.5065 124.436 42.4101 124.342 42.2815C124.252 42.1486 124.207 41.9858 124.207 41.7929C124.207 41.5529 124.284 41.3557 124.438 41.2014C124.597 41.0471 124.82 40.9421 125.107 40.8864L126.354 40.6421L126.348 41.1243L125.441 41.3107C125.261 41.345 125.126 41.3943 125.036 41.4586C124.946 41.5229 124.901 41.6172 124.901 41.7415C124.901 41.8615 124.946 41.9579 125.036 42.0308C125.13 42.0994 125.255 42.1336 125.409 42.1336C125.516 42.1336 125.619 42.1208 125.718 42.0951C125.82 42.0694 125.913 42.0286 125.994 41.9729C126.075 41.9129 126.138 41.8379 126.181 41.7479C126.228 41.6536 126.251 41.5422 126.251 41.4136V40.5392ZM128.06 42.603V39.3884H128.671L128.716 40.2242L128.626 40.1342C128.686 39.9499 128.771 39.7977 128.883 39.6777C128.998 39.5534 129.133 39.4634 129.288 39.4077C129.446 39.352 129.614 39.3241 129.789 39.3241C130.016 39.3241 130.22 39.3691 130.4 39.4591C130.584 39.5449 130.73 39.6756 130.837 39.8513C130.944 40.027 130.998 40.2499 130.998 40.5199V42.603H130.31V40.7321C130.31 40.4149 130.244 40.1963 130.111 40.0763C129.982 39.952 129.819 39.8899 129.622 39.8899C129.481 39.8899 129.343 39.9242 129.211 39.9928C129.078 40.057 128.966 40.1621 128.876 40.3078C128.791 40.4535 128.748 40.6485 128.748 40.8928V42.603H128.06ZM133.429 39.3241C133.686 39.3241 133.905 39.3627 134.085 39.4399C134.269 39.5127 134.423 39.6177 134.548 39.7549C134.672 39.892 134.766 40.0485 134.831 40.2242L134.181 40.4814C134.125 40.2842 134.035 40.1342 133.911 40.0313C133.791 39.9242 133.633 39.8706 133.435 39.8706C133.243 39.8706 133.078 39.9156 132.94 40.0056C132.803 40.0913 132.698 40.2178 132.625 40.3849C132.557 40.5521 132.523 40.7578 132.523 41.0021C132.523 41.2421 132.559 41.4457 132.632 41.6129C132.705 41.78 132.81 41.9065 132.947 41.9922C133.084 42.0779 133.247 42.1208 133.435 42.1208C133.581 42.1208 133.708 42.0972 133.815 42.0501C133.922 41.9986 134.01 41.9279 134.078 41.8379C134.151 41.7436 134.2 41.63 134.226 41.4972L134.85 41.7093C134.79 41.9022 134.696 42.0715 134.567 42.2172C134.443 42.3587 134.286 42.4701 134.098 42.5515C133.909 42.6287 133.693 42.6673 133.448 42.6673C133.131 42.6673 132.85 42.6008 132.606 42.468C132.362 42.3351 132.171 42.1444 132.034 41.8958C131.901 41.6429 131.835 41.3429 131.835 40.9957C131.835 40.6485 131.901 40.3506 132.034 40.102C132.171 39.8492 132.36 39.6563 132.6 39.5234C132.844 39.3906 133.12 39.3241 133.429 39.3241ZM135.998 38.8484C135.848 38.8484 135.732 38.8119 135.65 38.7391C135.573 38.6619 135.535 38.5548 135.535 38.4176C135.535 38.2805 135.573 38.1755 135.65 38.1026C135.732 38.0297 135.848 37.9933 135.998 37.9933C136.143 37.9933 136.255 38.0297 136.332 38.1026C136.413 38.1755 136.454 38.2805 136.454 38.4176C136.454 38.5548 136.413 38.6619 136.332 38.7391C136.255 38.8119 136.143 38.8484 135.998 38.8484ZM136.338 39.3884V42.603H135.65V39.3884H136.338ZM139.273 40.5392C139.273 40.3249 139.213 40.1599 139.093 40.0442C138.977 39.9242 138.816 39.8642 138.61 39.8642C138.418 39.8642 138.253 39.9092 138.115 39.9992C137.978 40.0892 137.878 40.2349 137.813 40.4364L137.235 40.1921C137.316 39.9306 137.475 39.7206 137.71 39.562C137.95 39.4034 138.259 39.3241 138.636 39.3241C138.893 39.3241 139.12 39.367 139.318 39.4527C139.515 39.5341 139.669 39.6584 139.781 39.8256C139.896 39.9928 139.954 40.2071 139.954 40.4685V41.9022C139.954 42.0608 140.033 42.1401 140.192 42.1401C140.269 42.1401 140.344 42.1294 140.417 42.1079L140.378 42.5837C140.28 42.6308 140.156 42.6544 140.006 42.6544C139.868 42.6544 139.744 42.6308 139.633 42.5837C139.526 42.5322 139.44 42.4572 139.376 42.3587C139.316 42.2558 139.286 42.1294 139.286 41.9793V41.9343L139.427 41.9279C139.388 42.0951 139.309 42.2344 139.189 42.3458C139.069 42.453 138.93 42.5344 138.771 42.5901C138.613 42.6415 138.452 42.6673 138.289 42.6673C138.088 42.6673 137.905 42.6351 137.743 42.5708C137.584 42.5065 137.458 42.4101 137.363 42.2815C137.273 42.1486 137.228 41.9858 137.228 41.7929C137.228 41.5529 137.305 41.3557 137.46 41.2014C137.618 41.0471 137.841 40.9421 138.128 40.8864L139.376 40.6421L139.369 41.1243L138.463 41.3107C138.283 41.345 138.148 41.3943 138.058 41.4586C137.968 41.5229 137.923 41.6172 137.923 41.7415C137.923 41.8615 137.968 41.9579 138.058 42.0308C138.152 42.0994 138.276 42.1336 138.43 42.1336C138.538 42.1336 138.64 42.1208 138.739 42.0951C138.842 42.0694 138.934 42.0286 139.015 41.9729C139.097 41.9129 139.159 41.8379 139.202 41.7479C139.249 41.6536 139.273 41.5422 139.273 41.4136V40.5392ZM141.75 37.9419V41.7029C141.75 41.8615 141.778 41.9708 141.833 42.0308C141.889 42.0908 141.981 42.1208 142.11 42.1208C142.187 42.1208 142.251 42.1165 142.303 42.1079C142.358 42.0951 142.427 42.0736 142.508 42.0436L142.431 42.558C142.358 42.5923 142.275 42.618 142.181 42.6351C142.086 42.6565 141.992 42.6673 141.898 42.6673C141.611 42.6673 141.398 42.5944 141.261 42.4487C141.128 42.2987 141.062 42.0694 141.062 41.7608V37.9419H141.75ZM146.529 38.2955C146.911 38.2955 147.241 38.3683 147.519 38.5141C147.798 38.6555 148.034 38.8655 148.227 39.1441L147.764 39.5877C147.601 39.3391 147.417 39.1613 147.211 39.0541C147.009 38.9427 146.769 38.8869 146.491 38.8869C146.285 38.8869 146.116 38.9148 145.983 38.9705C145.85 39.0262 145.751 39.1013 145.687 39.1955C145.627 39.2856 145.597 39.3884 145.597 39.5041C145.597 39.637 145.642 39.7527 145.732 39.8513C145.826 39.9499 146 40.027 146.253 40.0828L147.114 40.2756C147.526 40.3656 147.817 40.5028 147.989 40.6871C148.16 40.8714 148.246 41.105 148.246 41.3879C148.246 41.6493 148.175 41.8765 148.034 42.0694C147.892 42.2622 147.695 42.4101 147.442 42.513C147.194 42.6158 146.9 42.6673 146.562 42.6673C146.262 42.6673 145.991 42.6287 145.751 42.5515C145.511 42.4744 145.301 42.3694 145.121 42.2365C144.941 42.1036 144.794 41.9515 144.678 41.78L145.154 41.3043C145.244 41.4543 145.357 41.5893 145.494 41.7093C145.631 41.825 145.79 41.9151 145.97 41.9793C146.154 42.0436 146.358 42.0758 146.581 42.0758C146.778 42.0758 146.947 42.0522 147.089 42.0051C147.234 41.9579 147.344 41.8893 147.417 41.7993C147.494 41.705 147.532 41.5936 147.532 41.465C147.532 41.3407 147.489 41.2314 147.404 41.1371C147.322 41.0428 147.168 40.97 146.941 40.9185L146.009 40.7064C145.751 40.6507 145.539 40.5714 145.372 40.4685C145.205 40.3656 145.081 40.2413 144.999 40.0956C144.918 39.9456 144.877 39.7785 144.877 39.5942C144.877 39.3541 144.941 39.1377 145.07 38.9448C145.203 38.7477 145.394 38.5912 145.642 38.4755C145.891 38.3555 146.187 38.2955 146.529 38.2955ZM150.526 42.6673C150.204 42.6673 149.921 42.6008 149.677 42.468C149.433 42.3351 149.242 42.1444 149.105 41.8958C148.972 41.6429 148.906 41.3429 148.906 40.9957C148.906 40.6485 148.972 40.3506 149.105 40.102C149.242 39.8492 149.431 39.6563 149.671 39.5234C149.911 39.3906 150.183 39.3241 150.487 39.3241C150.8 39.3241 151.066 39.3884 151.284 39.517C151.503 39.6456 151.67 39.8213 151.786 40.0442C151.902 40.2671 151.959 40.5199 151.959 40.8028C151.959 40.88 151.957 40.9528 151.953 41.0214C151.949 41.09 151.942 41.15 151.934 41.2014H149.349V40.6742H151.632L151.291 40.7771C151.291 40.4857 151.218 40.2628 151.072 40.1085C150.926 39.9499 150.727 39.8706 150.474 39.8706C150.29 39.8706 150.129 39.9135 149.992 39.9992C149.855 40.0849 149.75 40.2135 149.677 40.3849C149.604 40.5521 149.568 40.7578 149.568 41.0021C149.568 41.2421 149.606 41.4457 149.684 41.6129C149.761 41.78 149.87 41.9065 150.011 41.9922C150.153 42.0779 150.32 42.1208 150.513 42.1208C150.727 42.1208 150.901 42.0801 151.034 41.9986C151.166 41.9172 151.272 41.8036 151.349 41.6579L151.895 41.9151C151.818 42.0694 151.713 42.2044 151.58 42.3201C151.452 42.4315 151.297 42.5172 151.117 42.5772C150.937 42.6373 150.74 42.6673 150.526 42.6673ZM152.828 42.603V39.3884H153.413L153.477 39.967C153.563 39.757 153.69 39.5984 153.857 39.4913C154.028 39.3798 154.238 39.3241 154.487 39.3241C154.551 39.3241 154.615 39.3306 154.68 39.3434C154.744 39.352 154.798 39.367 154.84 39.3884L154.744 39.9928C154.697 39.9756 154.643 39.9628 154.583 39.9542C154.528 39.9413 154.45 39.9349 154.352 39.9349C154.219 39.9349 154.088 39.9713 153.96 40.0442C153.831 40.1128 153.724 40.2178 153.638 40.3592C153.557 40.5007 153.516 40.6807 153.516 40.8993V42.603H152.828ZM157.605 39.3884H158.325L157.046 42.603H156.294L155.008 39.3884H155.76L156.673 42.0051L157.605 39.3884ZM159.259 38.8484C159.109 38.8484 158.993 38.8119 158.912 38.7391C158.835 38.6619 158.796 38.5548 158.796 38.4176C158.796 38.2805 158.835 38.1755 158.912 38.1026C158.993 38.0297 159.109 37.9933 159.259 37.9933C159.405 37.9933 159.516 38.0297 159.593 38.1026C159.675 38.1755 159.716 38.2805 159.716 38.4176C159.716 38.5548 159.675 38.6619 159.593 38.7391C159.516 38.8119 159.405 38.8484 159.259 38.8484ZM159.6 39.3884V42.603H158.912V39.3884H159.6ZM162.065 39.3241C162.322 39.3241 162.541 39.3627 162.721 39.4399C162.905 39.5127 163.059 39.6177 163.184 39.7549C163.308 39.892 163.402 40.0485 163.466 40.2242L162.817 40.4814C162.761 40.2842 162.671 40.1342 162.547 40.0313C162.427 39.9242 162.268 39.8706 162.071 39.8706C161.878 39.8706 161.713 39.9156 161.576 40.0056C161.439 40.0913 161.334 40.2178 161.261 40.3849C161.193 40.5521 161.158 40.7578 161.158 41.0021C161.158 41.2421 161.195 41.4457 161.268 41.6129C161.341 41.78 161.446 41.9065 161.583 41.9922C161.72 42.0779 161.883 42.1208 162.071 42.1208C162.217 42.1208 162.343 42.0972 162.451 42.0501C162.558 41.9986 162.646 41.9279 162.714 41.8379C162.787 41.7436 162.836 41.63 162.862 41.4972L163.486 41.7093C163.426 41.9022 163.331 42.0715 163.203 42.2172C163.079 42.3587 162.922 42.4701 162.733 42.5515C162.545 42.6287 162.328 42.6673 162.084 42.6673C161.767 42.6673 161.486 42.6008 161.242 42.468C160.998 42.3351 160.807 42.1444 160.67 41.8958C160.537 41.6429 160.47 41.3429 160.47 40.9957C160.47 40.6485 160.537 40.3506 160.67 40.102C160.807 39.8492 160.995 39.6563 161.235 39.5234C161.48 39.3906 161.756 39.3241 162.065 39.3241ZM165.701 42.6673C165.379 42.6673 165.096 42.6008 164.852 42.468C164.608 42.3351 164.417 42.1444 164.28 41.8958C164.147 41.6429 164.081 41.3429 164.081 40.9957C164.081 40.6485 164.147 40.3506 164.28 40.102C164.417 39.8492 164.606 39.6563 164.846 39.5234C165.086 39.3906 165.358 39.3241 165.662 39.3241C165.975 39.3241 166.241 39.3884 166.459 39.517C166.678 39.6456 166.845 39.8213 166.961 40.0442C167.076 40.2671 167.134 40.5199 167.134 40.8028C167.134 40.88 167.132 40.9528 167.128 41.0214C167.124 41.09 167.117 41.15 167.109 41.2014H164.524V40.6742H166.806L166.466 40.7771C166.466 40.4857 166.393 40.2628 166.247 40.1085C166.101 39.9499 165.902 39.8706 165.649 39.8706C165.465 39.8706 165.304 39.9135 165.167 39.9992C165.03 40.0849 164.925 40.2135 164.852 40.3849C164.779 40.5521 164.743 40.7578 164.743 41.0021C164.743 41.2421 164.781 41.4457 164.858 41.6129C164.936 41.78 165.045 41.9065 165.186 41.9922C165.328 42.0779 165.495 42.1208 165.688 42.1208C165.902 42.1208 166.076 42.0801 166.209 41.9986C166.341 41.9172 166.446 41.8036 166.524 41.6579L167.07 41.9151C166.993 42.0694 166.888 42.2044 166.755 42.3201C166.626 42.4315 166.472 42.5172 166.292 42.5772C166.112 42.6373 165.915 42.6673 165.701 42.6673ZM169.225 42.6673C168.903 42.6673 168.61 42.6051 168.344 42.4808C168.078 42.3565 167.868 42.1808 167.714 41.9536L168.19 41.5422C168.284 41.7179 168.419 41.8593 168.595 41.9665C168.775 42.0694 168.989 42.1208 169.237 42.1208C169.435 42.1208 169.591 42.0865 169.707 42.0179C169.823 41.9493 169.88 41.8529 169.88 41.7286C169.88 41.6472 169.853 41.5765 169.797 41.5164C169.745 41.4522 169.645 41.4029 169.495 41.3686L168.82 41.2271C168.477 41.1586 168.232 41.0493 168.087 40.8993C167.941 40.745 167.868 40.5499 167.868 40.3142C167.868 40.1385 167.919 39.9756 168.022 39.8256C168.125 39.6756 168.275 39.5556 168.472 39.4656C168.674 39.3713 168.914 39.3241 169.192 39.3241C169.514 39.3241 169.788 39.382 170.015 39.4977C170.243 39.6092 170.416 39.7699 170.536 39.9799L170.06 40.3785C169.979 40.2071 169.859 40.0806 169.7 39.9992C169.542 39.9135 169.377 39.8706 169.205 39.8706C169.068 39.8706 168.95 39.8877 168.852 39.922C168.753 39.9563 168.678 40.0035 168.627 40.0635C168.575 40.1235 168.55 40.1942 168.55 40.2756C168.55 40.3614 168.582 40.4364 168.646 40.5007C168.71 40.5649 168.826 40.6142 168.993 40.6485L169.726 40.8028C170.035 40.8628 170.251 40.9657 170.375 41.1114C170.504 41.2529 170.568 41.4264 170.568 41.6322C170.568 41.8379 170.515 42.0201 170.408 42.1786C170.3 42.3329 170.146 42.453 169.945 42.5387C169.743 42.6244 169.503 42.6673 169.225 42.6673Z" fill="#FB9F28"/>
</svg>
