<svg width="49" height="47" viewBox="0 0 49 47" fill="none" xmlns="http://www.w3.org/2000/svg">
<path d="M0.5 0.674316V46.348H48.14V0.674316H0.5ZM46.911 1.90329V8.5668H1.72898V1.90329H46.911ZM1.72898 45.119V9.79577H46.911V45.119H1.72898Z" fill="#34E8BB"/>
<path d="M33.702 15.7304H40.1701L21.8079 35.0069L14.8839 29.0759L6.58093 38.4112L7.50021 39.2285L15.0006 30.794L21.894 36.698L40.9898 16.6522V23.0084H42.2188V14.5015H33.702V15.7304Z" fill="#34E8BB"/>
<path d="M39.6292 4.31348H19.8759V6.15694H39.6292V4.31348Z" fill="#34E8BB"/>
<path d="M7.9576 4.31348H6.11414V6.15694H7.9576V4.31348Z" fill="#34E8BB"/>
<path d="M11.909 4.31348H10.0656V6.15694H11.909V4.31348Z" fill="#34E8BB"/>
</svg>
