<svg width="32" height="30" viewBox="0 0 32 30" fill="none" xmlns="http://www.w3.org/2000/svg">
<rect width="32" height="30" rx="5" fill="#E5FFF9"/>
<path fill-rule="evenodd" clip-rule="evenodd" d="M9.73303 5.04305C10.95 3.83305 12.954 4.04805 13.973 5.41005L15.235 7.09405C16.065 8.20205 15.991 9.75005 15.006 10.7291L14.768 10.9671C14.741 11.067 14.7383 11.1719 14.76 11.2731C14.823 11.6811 15.164 12.5451 16.592 13.9651C18.02 15.3851 18.89 15.7251 19.304 15.7891C19.4083 15.81 19.5161 15.807 19.619 15.7801L20.027 15.3741C20.903 14.5041 22.247 14.3411 23.331 14.9301L25.241 15.9701C26.878 16.8581 27.291 19.0821 25.951 20.4151L24.53 21.8271C24.082 22.2721 23.48 22.6431 22.746 22.7121C20.936 22.8811 16.719 22.6651 12.286 18.2581C8.14903 14.1441 7.35503 10.5561 7.25403 8.78805C7.20403 7.89405 7.62603 7.13805 8.16403 6.60405L9.73303 5.04305ZM12.773 6.30905C12.266 5.63205 11.322 5.57805 10.79 6.10705L9.22003 7.66705C8.89003 7.99505 8.73203 8.35705 8.75203 8.70305C8.83203 10.1081 9.47203 13.3451 13.344 17.1951C17.406 21.2331 21.157 21.3541 22.607 21.2181C22.903 21.1911 23.197 21.0371 23.472 20.7641L24.892 19.3511C25.47 18.7771 25.343 17.7311 24.525 17.2871L22.615 16.2481C22.087 15.9621 21.469 16.0561 21.085 16.4381L20.63 16.8911L20.1 16.3591C20.63 16.8911 20.629 16.8921 20.628 16.8921L20.627 16.8941L20.624 16.8971L20.617 16.9031L20.602 16.9171C20.5598 16.9562 20.5143 16.9917 20.466 17.0231C20.386 17.0761 20.28 17.1351 20.147 17.1841C19.877 17.2851 19.519 17.3391 19.077 17.2711C18.21 17.1381 17.061 16.5471 15.534 15.0291C14.008 13.5111 13.412 12.3691 13.278 11.5031C13.209 11.0611 13.264 10.7031 13.366 10.4331C13.4222 10.2811 13.5025 10.1393 13.604 10.0131L13.636 9.97805L13.65 9.96305L13.656 9.95705L13.659 9.95405L13.661 9.95205L13.949 9.66605C14.377 9.23905 14.437 8.53205 14.034 7.99305L12.773 6.30905Z" fill="#34E8BB"/>
</svg>
