<svg width="15" height="14" viewBox="0 0 15 14" fill="none" xmlns="http://www.w3.org/2000/svg">
<path d="M11.3107 0.000105227C12.4434 0.000105128 13.3495 0.401922 14.0291 1.20556C14.6764 2.04134 15 3.11822 15 4.43619C15 6.23634 14.5146 7.85969 13.5437 9.30624C12.5404 10.7849 11.0194 12.0225 8.98055 13.019L8.44657 12.2476C9.41745 11.6689 10.3074 10.8492 11.1165 9.78842C11.8932 8.75976 12.2815 7.71503 12.2815 6.65423C12.2815 6.36492 12.2006 6.12383 12.0388 5.93096C11.877 5.77023 11.6343 5.68986 11.3107 5.68986C10.5016 5.68986 9.82198 5.40055 9.27181 4.82194C8.68929 4.27546 8.39802 3.6004 8.39802 2.79676C8.39802 1.99313 8.68929 1.31807 9.27181 0.771596C9.82198 0.257267 10.5016 0.000105297 11.3107 0.000105227ZM2.91256 0.000105961C4.04525 0.000105862 4.9514 0.401923 5.63102 1.20556C6.27827 2.04134 6.6019 3.11822 6.6019 4.43619C6.6019 6.23634 6.11646 7.85969 5.14558 9.30624C4.14234 10.7849 2.62129 12.0225 0.582448 13.019L0.0484638 12.2476C1.01934 11.6689 1.90931 10.8492 2.71838 9.78842C3.49508 8.75976 3.88343 7.71503 3.88343 6.65423C3.88343 6.36492 3.80253 6.12383 3.64071 5.93096C3.4789 5.77023 3.23618 5.68986 2.91256 5.68986C2.10349 5.68986 1.42388 5.40055 0.873711 4.82194C0.291183 4.27546 -7.99784e-05 3.6004 -8.00486e-05 2.79676C-8.01189e-05 1.99313 0.291182 1.31807 0.873711 0.771596C1.42387 0.257268 2.10349 0.000106032 2.91256 0.000105961Z" fill="#E3E3E3"/>
</svg>
