<svg width="24" height="21" viewBox="0 0 24 21" fill="none" xmlns="http://www.w3.org/2000/svg">
<path d="M6.38793 0.964878C4.70001 0.964878 3.34968 1.56366 2.33693 2.76123C1.3724 4.0067 0.890138 5.61144 0.890138 7.57545C0.890138 10.258 1.61353 12.6771 3.06032 14.8327C4.55533 17.0362 6.82197 18.8805 9.86022 20.3655L10.6559 19.2158C9.20916 18.3536 7.88294 17.132 6.67729 15.5513C5.51986 14.0184 4.94114 12.4615 4.94114 10.8807C4.94114 10.4496 5.06171 10.0903 5.30284 9.80293C5.54397 9.56341 5.90567 9.44366 6.38793 9.44366C7.59359 9.44366 8.60634 9.01254 9.42618 8.15029C10.2943 7.33594 10.7283 6.32998 10.7283 5.13241C10.7283 3.93484 10.2943 2.92889 9.42618 2.11454C8.60634 1.3481 7.59359 0.964878 6.38793 0.964878ZM18.9026 0.964879C17.2147 0.964879 15.8644 1.56366 14.8516 2.76123C13.8871 4.0067 13.4048 5.61144 13.4048 7.57546C13.4048 10.258 14.1282 12.6771 15.575 14.8327C17.07 17.0362 19.3367 18.8805 22.3749 20.3655L23.1707 19.2158C21.7239 18.3536 20.3977 17.132 19.192 15.5513C18.0346 14.0184 17.4559 12.4615 17.4559 10.8807C17.4559 10.4496 17.5764 10.0903 17.8175 9.80293C18.0587 9.56342 18.4204 9.44366 18.9026 9.44366C20.1083 9.44366 21.121 9.01254 21.9409 8.15029C22.809 7.33594 23.243 6.32998 23.243 5.13241C23.243 3.93485 22.809 2.92889 21.9409 2.11454C21.121 1.3481 20.1083 0.964879 18.9026 0.964879Z" fill="#E3E3E3"/>
</svg>
