<svg width="147" height="58" viewBox="0 0 147 58" fill="none" xmlns="http://www.w3.org/2000/svg">
<path d="M27.8099 51.5736L51.2469 31.1096C51.6301 30.775 51.6695 30.1931 51.3349 29.8099L30.6452 6.11428C30.3106 5.73107 29.7287 5.69167 29.3455 6.02626L5.90842 26.4902C5.52522 26.8248 5.48581 27.4067 5.8204 27.7899L26.5102 51.4856C26.8448 51.8688 27.4267 51.9082 27.8099 51.5736Z" fill="#052541"/>
<path d="M14.1926 42.0687L41.0775 43.8646C41.5088 43.8934 41.8818 43.5671 41.9107 43.1358L43.7263 15.9545C43.7551 15.5232 43.4288 15.1502 42.9975 15.1214L16.1126 13.3255C15.6813 13.2967 15.3083 13.623 15.2795 14.0543L13.4638 41.2355C13.435 41.6669 13.7613 42.0399 14.1926 42.0687Z" fill="#FB9F28" stroke="#FB9F28" stroke-width="0.460564"/>
<path d="M27.3538 27.2464L25.9611 30.0614H25.2757L23.8904 27.2464V30.4888H22.026V30.1719H22.7408V25.3378H24.2957L25.6221 28.1675L26.9559 25.3378H28.5034V30.1719H29.2182V30.4888H27.3538V27.2464ZM35.3794 30.1719V30.4888H33.4414L32.9624 29.376H30.8032L30.3243 30.4888H28.3862V30.1719H29.2336L31.3264 25.3378H32.4392L34.5246 30.1719H35.3794ZM31.8865 26.8706L31.238 28.3665H32.5276L31.8865 26.8706Z" fill="white"/>
<path d="M66.7772 23.7959L65.2104 26.9628H64.4394L62.8808 23.7959V27.4436H60.7834V27.0871H61.5876V21.6488H63.3368L64.829 24.8322L66.3296 21.6488H68.0705V27.0871H68.8746V27.4436H66.7772V23.7959ZM71.5034 27.0871V27.4436H68.7843V27.0871H69.4972V21.6488H70.7905V27.0871H71.5034ZM77.606 27.0871V27.4436H71.5045V27.0871H73.2869C72.8447 26.8274 72.4965 26.4764 72.2423 26.0343C71.9936 25.5866 71.8692 25.0809 71.8692 24.5172C71.8692 23.6661 72.1622 22.9531 72.748 22.3783C73.3394 21.8035 74.0606 21.5161 74.9117 21.5161C75.8623 21.5161 76.6582 21.8782 77.2993 22.6022L76.4951 23.5141C76.0862 23.0056 75.5777 22.7514 74.9698 22.7514C74.4834 22.7514 74.0661 22.9117 73.7179 23.2322C73.3753 23.5472 73.204 23.9756 73.204 24.5172C73.204 25.0533 73.367 25.4844 73.6931 25.8104C74.0192 26.1365 74.4143 26.2996 74.8786 26.2996C75.5141 26.2996 76.0337 26.0481 76.4371 25.5452L77.2661 26.399C77.023 26.6809 76.7494 26.9103 76.4454 27.0871H77.606ZM83.9258 27.0871V27.4436H81.9196V25.1638H79.615V27.4436H77.6087V27.0871H78.3217V21.6488H79.615V24.0695H81.9196V21.6488H83.2129V27.0871H83.9258ZM84.6365 27.0871V21.6488H88.8147V22.8011H85.9297V23.9949H88.5245V25.0975H85.9297V26.2996H88.9059V27.0871H89.71V27.4436H83.8323V27.0871H84.6365ZM96.3695 27.0871V27.4436H94.1892L93.6503 26.1918H91.2213L90.6824 27.4436H88.5021V27.0871H89.4555L91.8099 21.6488H93.0617L95.4078 27.0871H96.3695ZM92.4399 23.3731L91.7104 25.056H93.1612L92.4399 23.3731ZM100.806 27.0871V27.4436H95.4337V27.0871H96.2378V21.6488H97.5311V26.2913H100.002V27.0871H100.806ZM102.425 27.0871V27.4436H100.237V27.0871H102.425ZM109.444 27.0871V27.4436H107.264L106.725 26.1918H104.296L103.757 27.4436H101.577V27.0871H102.53L104.885 21.6488H106.137L108.483 27.0871H109.444ZM105.515 23.3731L104.785 25.056H106.236L105.515 23.3731ZM113.88 27.0871V27.4436H108.508V27.0871H109.313V21.6488H110.606V26.2913H113.076V27.0871H113.88ZM120.333 27.0871V27.4436H118.153L117.614 26.1918H115.185L114.646 27.4436H112.466V27.0871H113.419L115.774 21.6488H117.025L119.372 27.0871H120.333ZM116.404 23.3731L115.674 25.056H117.125L116.404 23.3731ZM125.706 27.0871V27.4436H119.489V27.0871H121.288C120.845 26.8274 120.497 26.4764 120.243 26.0343C119.994 25.5866 119.87 25.0809 119.87 24.5172C119.87 23.6661 120.163 22.9531 120.749 22.3783C121.34 21.8035 122.05 21.5161 122.879 21.5161C123.714 21.5161 124.438 21.7897 125.051 22.3369L124.38 23.3068C124.12 23.0802 123.88 22.9255 123.659 22.8426C123.443 22.7541 123.208 22.7099 122.954 22.7099C122.462 22.7099 122.047 22.8785 121.71 23.2156C121.373 23.5472 121.205 23.9866 121.205 24.5338C121.205 25.0809 121.365 25.5203 121.685 25.8519C122.012 26.178 122.398 26.341 122.846 26.341C123.294 26.341 123.667 26.2553 123.965 26.084V24.4923H125.267V26.5483C125.079 26.7583 124.855 26.9379 124.595 27.0871H125.706ZM131.559 27.0871V27.4436H125.615V27.0871H126.419V21.6488H128.674C129.066 21.6488 129.404 21.6958 129.685 21.7897C129.973 21.8837 130.188 22.0108 130.332 22.1711C130.592 22.4695 130.722 22.8066 130.722 23.1825C130.722 23.6357 130.575 23.9728 130.282 24.1939C130.183 24.2712 130.114 24.321 130.075 24.3431C130.036 24.3597 129.967 24.3901 129.868 24.4343C130.227 24.5117 130.512 24.6747 130.722 24.9234C130.937 25.1666 131.045 25.4705 131.045 25.8353C131.045 26.3825 130.829 26.7997 130.398 27.0871H131.559ZM127.712 26.3493H128.599C128.97 26.3493 129.246 26.3051 129.428 26.2167C129.616 26.1227 129.71 25.9431 129.71 25.6778C129.71 25.407 129.611 25.2301 129.412 25.1472C129.218 25.0588 128.906 25.0146 128.475 25.0146H127.712V26.3493ZM127.712 23.9949H128.326C128.685 23.9949 128.95 23.9562 129.122 23.8788C129.299 23.8015 129.387 23.6357 129.387 23.3814C129.387 23.1217 129.307 22.9503 129.147 22.8674C128.986 22.7845 128.715 22.7431 128.334 22.7431H127.712V23.9949ZM132.272 27.0871V21.6488H136.451V22.8011H133.566V23.9949H136.161V25.0975H133.566V26.2996H136.542V27.0871H137.346V27.4436H131.468V27.0871H132.272Z" fill="#052541"/>
<path d="M64.4449 36.7464H63.8204L63.4722 35.7903H61.9413L61.5931 36.7464H60.9852L62.3613 33.0987H63.0688L64.4449 36.7464ZM62.1071 35.3094H63.3064L62.7095 33.6072L62.1071 35.3094ZM66.1433 33.9277C66.3644 33.9277 66.5523 33.9609 66.707 34.0272C66.8654 34.0899 66.9981 34.1801 67.1049 34.298C67.2118 34.4159 67.2928 34.5504 67.3481 34.7015L66.7899 34.9226C66.742 34.7531 66.6646 34.6241 66.5578 34.5357C66.4546 34.4436 66.3183 34.3975 66.1488 34.3975C65.983 34.3975 65.8412 34.4362 65.7232 34.5136C65.6053 34.5873 65.5151 34.696 65.4524 34.8397C65.3935 34.9834 65.364 35.1602 65.364 35.3702C65.364 35.5766 65.3953 35.7516 65.458 35.8953C65.5206 36.039 65.6109 36.1477 65.7288 36.2214C65.8467 36.295 65.9867 36.3319 66.1488 36.3319C66.2741 36.3319 66.3828 36.3116 66.4749 36.2711C66.567 36.2269 66.6425 36.1661 66.7015 36.0887C66.7641 36.0077 66.8065 35.91 66.8286 35.7958L67.3647 35.9782C67.3131 36.144 67.2321 36.2895 67.1215 36.4148C67.0147 36.5364 66.8802 36.6322 66.7181 36.7022C66.5559 36.7685 66.3699 36.8017 66.1599 36.8017C65.8872 36.8017 65.6459 36.7446 65.4359 36.6303C65.2258 36.5161 65.0619 36.3522 64.944 36.1385C64.8298 35.9211 64.7726 35.6632 64.7726 35.3647C64.7726 35.0663 64.8298 34.8102 64.944 34.5965C65.0619 34.3791 65.224 34.2133 65.4303 34.0991C65.6403 33.9849 65.878 33.9277 66.1433 33.9277ZM69.2467 33.9277C69.4678 33.9277 69.6557 33.9609 69.8104 34.0272C69.9689 34.0899 70.1015 34.1801 70.2083 34.298C70.3152 34.4159 70.3963 34.5504 70.4515 34.7015L69.8933 34.9226C69.8454 34.7531 69.768 34.6241 69.6612 34.5357C69.558 34.4436 69.4217 34.3975 69.2522 34.3975C69.0864 34.3975 68.9446 34.4362 68.8267 34.5136C68.7088 34.5873 68.6185 34.696 68.5558 34.8397C68.4969 34.9834 68.4674 35.1602 68.4674 35.3702C68.4674 35.5766 68.4987 35.7516 68.5614 35.8953C68.624 36.039 68.7143 36.1477 68.8322 36.2214C68.9501 36.295 69.0901 36.3319 69.2522 36.3319C69.3775 36.3319 69.4862 36.3116 69.5783 36.2711C69.6704 36.2269 69.7459 36.1661 69.8049 36.0887C69.8675 36.0077 69.9099 35.91 69.932 35.7958L70.4681 35.9782C70.4165 36.144 70.3355 36.2895 70.2249 36.4148C70.1181 36.5364 69.9836 36.6322 69.8215 36.7022C69.6594 36.7685 69.4733 36.8017 69.2633 36.8017C68.9906 36.8017 68.7493 36.7446 68.5393 36.6303C68.3292 36.5161 68.1653 36.3522 68.0474 36.1385C67.9332 35.9211 67.8761 35.6632 67.8761 35.3647C67.8761 35.0663 67.9332 34.8102 68.0474 34.5965C68.1653 34.3791 68.3274 34.2133 68.5337 34.0991C68.7438 33.9849 68.9814 33.9277 69.2467 33.9277ZM72.3556 33.9277C72.6246 33.9277 72.8622 33.9849 73.0686 34.0991C73.2749 34.2133 73.4352 34.3791 73.5494 34.5965C73.6673 34.8102 73.7263 35.0663 73.7263 35.3647C73.7263 35.6632 73.6673 35.9211 73.5494 36.1385C73.4352 36.3522 73.2749 36.5161 73.0686 36.6303C72.8622 36.7446 72.6246 36.8017 72.3556 36.8017C72.0867 36.8017 71.849 36.7446 71.6427 36.6303C71.4363 36.5161 71.2742 36.3522 71.1563 36.1385C71.0384 35.9211 70.9795 35.6632 70.9795 35.3647C70.9795 35.0663 71.0384 34.8102 71.1563 34.5965C71.2742 34.3791 71.4363 34.2133 71.6427 34.0991C71.849 33.9849 72.0867 33.9277 72.3556 33.9277ZM72.3556 34.392C72.1898 34.392 72.048 34.4307 71.9301 34.5081C71.8158 34.5817 71.7274 34.6904 71.6648 34.8341C71.6021 34.9778 71.5708 35.1547 71.5708 35.3647C71.5708 35.571 71.6021 35.7479 71.6648 35.8953C71.7274 36.039 71.8158 36.1495 71.9301 36.2269C72.048 36.3006 72.1898 36.3374 72.3556 36.3374C72.5214 36.3374 72.6614 36.3006 72.7757 36.2269C72.8899 36.1495 72.9783 36.039 73.0409 35.8953C73.1036 35.7479 73.1349 35.571 73.1349 35.3647C73.1349 35.1547 73.1036 34.9778 73.0409 34.8341C72.9783 34.6904 72.8899 34.5817 72.7757 34.5081C72.6614 34.4307 72.5214 34.392 72.3556 34.392ZM75.454 36.8017C75.2734 36.8017 75.1058 36.7685 74.951 36.7022C74.8 36.6359 74.6784 36.529 74.5863 36.3816C74.4942 36.2343 74.4481 36.0427 74.4481 35.8068V33.983H75.0395V35.6576C75.0395 35.9082 75.0929 36.0813 75.1997 36.1771C75.3066 36.2693 75.4558 36.3153 75.6474 36.3153C75.7395 36.3153 75.828 36.3006 75.9127 36.2711C76.0011 36.2379 76.0803 36.1882 76.1504 36.1219C76.2204 36.0519 76.2738 35.9634 76.3106 35.8566C76.3512 35.7497 76.3714 35.6245 76.3714 35.4808V33.983H76.9628V36.7464H76.4433L76.4156 36.2987C76.3198 36.4719 76.1909 36.599 76.0288 36.6801C75.8666 36.7611 75.6751 36.8017 75.454 36.8017ZM77.8867 36.7464V33.983H78.4117L78.4504 34.7015L78.373 34.6241C78.4246 34.4657 78.4983 34.3349 78.5941 34.2317C78.6936 34.1249 78.8096 34.0475 78.9423 33.9996C79.0786 33.9517 79.2223 33.9277 79.3734 33.9277C79.5686 33.9277 79.7437 33.9664 79.8984 34.0438C80.0568 34.1175 80.1821 34.2299 80.2742 34.3809C80.3663 34.532 80.4124 34.7236 80.4124 34.9557V36.7464H79.821V35.1381C79.821 34.8655 79.7639 34.6775 79.6497 34.5744C79.5392 34.4675 79.3992 34.4141 79.2297 34.4141C79.1081 34.4141 78.9902 34.4436 78.876 34.5025C78.7617 34.5578 78.6659 34.6481 78.5886 34.7733C78.5149 34.8986 78.478 35.0663 78.478 35.2763V36.7464H77.8867ZM82.083 33.1706V35.9174C82.083 36.0537 82.118 36.1532 82.188 36.2158C82.2617 36.2785 82.3594 36.3098 82.481 36.3098C82.5804 36.3098 82.667 36.295 82.7407 36.2656C82.8144 36.2324 82.8826 36.1882 82.9452 36.1329L83.0779 36.564C82.9931 36.6377 82.8881 36.6967 82.7628 36.7409C82.6412 36.7814 82.5049 36.8017 82.3538 36.8017C82.1954 36.8017 82.0499 36.7759 81.9172 36.7243C81.7846 36.6727 81.6814 36.5898 81.6077 36.4756C81.534 36.3577 81.4954 36.2048 81.4917 36.0169V33.3364L82.083 33.1706ZM83.0336 33.983V34.4473H80.9611V33.983H83.0336ZM83.917 33.5188C83.788 33.5188 83.6885 33.4874 83.6185 33.4248C83.5522 33.3585 83.519 33.2664 83.519 33.1485C83.519 33.0306 83.5522 32.9403 83.6185 32.8777C83.6885 32.815 83.788 32.7837 83.917 32.7837C84.0422 32.7837 84.138 32.815 84.2044 32.8777C84.2744 32.9403 84.3094 33.0306 84.3094 33.1485C84.3094 33.2664 84.2744 33.3585 84.2044 33.4248C84.138 33.4874 84.0422 33.5188 83.917 33.5188ZM84.2099 33.983V36.7464H83.6185V33.983H84.2099ZM85.1351 36.7464V33.983H85.6602L85.6989 34.7015L85.6215 34.6241C85.6731 34.4657 85.7468 34.3349 85.8426 34.2317C85.9421 34.1249 86.0581 34.0475 86.1908 33.9996C86.3271 33.9517 86.4708 33.9277 86.6218 33.9277C86.8171 33.9277 86.9921 33.9664 87.1469 34.0438C87.3053 34.1175 87.4306 34.2299 87.5227 34.3809C87.6148 34.532 87.6609 34.7236 87.6609 34.9557V36.7464H87.0695V35.1381C87.0695 34.8655 87.0124 34.6775 86.8982 34.5744C86.7876 34.4675 86.6476 34.4141 86.4781 34.4141C86.3566 34.4141 86.2387 34.4436 86.1244 34.5025C86.0102 34.5578 85.9144 34.6481 85.837 34.7733C85.7634 34.8986 85.7265 35.0663 85.7265 35.2763V36.7464H85.1351ZM90.9888 33.4027L91.0827 33.867C91.0717 33.867 91.0606 33.867 91.0496 33.867C91.0385 33.8633 91.0275 33.8614 91.0164 33.8614C90.8395 33.8614 90.7051 33.9001 90.6129 33.9775C90.5208 34.0512 90.4748 34.1599 90.4748 34.3036L90.1874 34.1709C90.1874 34.0235 90.2187 33.8927 90.2813 33.7785C90.344 33.6606 90.4324 33.5685 90.5466 33.5022C90.6645 33.4359 90.7972 33.4027 90.9446 33.4027C90.9519 33.4027 90.9593 33.4027 90.9667 33.4027C90.974 33.4027 90.9814 33.4027 90.9888 33.4027ZM90.1155 36.3153C90.3956 36.3153 90.6129 36.3779 90.7677 36.5032C90.9224 36.6248 90.9998 36.7943 90.9998 37.0117C90.9998 37.2033 90.939 37.3672 90.8174 37.5036C90.6958 37.6436 90.53 37.7504 90.32 37.8241C90.1137 37.8978 89.876 37.9347 89.6071 37.9347C89.1539 37.9347 88.8186 37.8646 88.6012 37.7246C88.3838 37.5846 88.2751 37.4096 88.2751 37.1996C88.2751 37.0522 88.3267 36.9233 88.4299 36.8127C88.5367 36.7022 88.7154 36.6395 88.966 36.6248L88.9328 36.7132C88.7781 36.6801 88.6528 36.6211 88.557 36.5364C88.4649 36.448 88.4188 36.3245 88.4188 36.1661C88.4188 36.0077 88.4796 35.8732 88.6012 35.7626C88.7228 35.6521 88.8941 35.5876 89.1152 35.5692L89.4247 35.7184H89.3584C89.1889 35.7332 89.0691 35.7718 88.9991 35.8345C88.9291 35.8971 88.8941 35.9671 88.8941 36.0445C88.8941 36.1366 88.9273 36.2048 88.9936 36.249C89.0636 36.2932 89.1612 36.3153 89.2865 36.3153H90.1155ZM89.6071 37.4925C89.8097 37.4925 89.9755 37.4722 90.1045 37.4317C90.2371 37.3949 90.3348 37.3451 90.3974 37.2825C90.4637 37.2235 90.4969 37.1572 90.4969 37.0835C90.4969 36.9988 90.4619 36.9306 90.3919 36.879C90.3256 36.8275 90.204 36.8017 90.0271 36.8017H89.1373C89.0341 36.8017 88.9475 36.8275 88.8775 36.879C88.8075 36.9343 88.7725 37.008 88.7725 37.1001C88.7725 37.2217 88.8462 37.3175 88.9936 37.3875C89.141 37.4575 89.3455 37.4925 89.6071 37.4925ZM89.585 33.9277C89.8281 33.9277 90.0382 33.9664 90.215 34.0438C90.3956 34.1212 90.5337 34.2299 90.6295 34.3699C90.729 34.5099 90.7787 34.6739 90.7787 34.8618C90.7787 35.0497 90.729 35.2136 90.6295 35.3537C90.5337 35.4937 90.3956 35.6024 90.215 35.6797C90.0382 35.7571 89.8281 35.7958 89.585 35.7958C89.2018 35.7958 88.907 35.7111 88.7007 35.5416C88.498 35.3684 88.3967 35.1418 88.3967 34.8618C88.3967 34.6739 88.4465 34.5099 88.5459 34.3699C88.6454 34.2299 88.7836 34.1212 88.9604 34.0438C89.141 33.9664 89.3492 33.9277 89.585 33.9277ZM89.585 34.3423C89.4155 34.3423 89.2736 34.3902 89.1594 34.486C89.0489 34.5781 88.9936 34.7033 88.9936 34.8618C88.9936 35.0202 89.0489 35.1473 89.1594 35.2431C89.2736 35.3389 89.4155 35.3868 89.585 35.3868C89.7581 35.3868 89.9 35.3389 90.0105 35.2431C90.1247 35.1473 90.1819 35.0202 90.1819 34.8618C90.1819 34.7033 90.1247 34.5781 90.0105 34.486C89.9 34.3902 89.7581 34.3423 89.585 34.3423ZM94.3061 36.8017C94.0593 36.8017 93.8456 36.7611 93.665 36.6801C93.4882 36.5953 93.35 36.4793 93.2505 36.3319C93.1547 36.1845 93.1068 36.0113 93.1068 35.8124C93.1068 35.6982 93.1216 35.5895 93.151 35.4863C93.1842 35.3794 93.2358 35.2781 93.3058 35.1823C93.3795 35.0828 93.4789 34.9926 93.6042 34.9115C93.7295 34.8268 93.8861 34.7531 94.074 34.6904L94.2895 34.5965C94.4369 34.5117 94.5548 34.4344 94.6433 34.3644C94.7354 34.2944 94.8017 34.2207 94.8422 34.1433C94.8864 34.0659 94.9085 33.9756 94.9085 33.8725C94.9085 33.7509 94.8717 33.6569 94.798 33.5906C94.7243 33.5243 94.6267 33.4911 94.5051 33.4911C94.3614 33.4911 94.2527 33.5317 94.179 33.6127C94.109 33.6901 94.074 33.7841 94.074 33.8946C94.074 33.9609 94.0832 34.0254 94.1016 34.088C94.1237 34.1507 94.1643 34.228 94.2232 34.3201C94.2859 34.4123 94.3761 34.5339 94.494 34.6849C94.6119 34.8323 94.7722 35.0276 94.9749 35.2708C95.1738 35.5102 95.3396 35.7055 95.4723 35.8566C95.6086 36.004 95.7247 36.1163 95.8205 36.1937C95.9163 36.2674 96.0047 36.3172 96.0857 36.3429C96.1705 36.3651 96.2644 36.3743 96.3676 36.3706L96.2681 36.8017C96.1502 36.8017 96.0397 36.7888 95.9365 36.763C95.837 36.7409 95.7283 36.6893 95.6104 36.6082C95.4962 36.5272 95.3599 36.4056 95.2015 36.2435C95.0467 36.0813 94.8551 35.8658 94.6267 35.5968C94.413 35.3463 94.2343 35.1363 94.0906 34.9668C93.9506 34.7936 93.84 34.6481 93.759 34.5302C93.6816 34.4086 93.6263 34.2999 93.5932 34.2041C93.56 34.1046 93.5434 33.9996 93.5434 33.8891C93.5434 33.7527 93.5784 33.6201 93.6484 33.4911C93.7184 33.3585 93.8234 33.2516 93.9635 33.1706C94.1072 33.0858 94.2932 33.0435 94.5217 33.0435C94.7059 33.0435 94.8625 33.0766 94.9914 33.1429C95.1204 33.2093 95.2199 33.3014 95.2899 33.4193C95.3599 33.5335 95.3949 33.6661 95.3949 33.8172C95.3949 33.9572 95.3691 34.088 95.3175 34.2096C95.2659 34.3312 95.1738 34.4473 95.0412 34.5578C94.9122 34.6683 94.728 34.777 94.4885 34.8839L94.3061 34.9613C94.1366 35.046 94.004 35.1271 93.9082 35.2044C93.8124 35.2818 93.7442 35.3647 93.7037 35.4531C93.6632 35.5379 93.6429 35.641 93.6429 35.7626C93.6429 35.8879 93.6742 35.9966 93.7369 36.0887C93.8032 36.1771 93.8916 36.2453 94.0021 36.2932C94.1127 36.3411 94.2361 36.3651 94.3724 36.3651C94.5677 36.3651 94.7335 36.3319 94.8699 36.2656C95.0062 36.1956 95.1333 36.0998 95.2512 35.9782L95.3286 35.8953C95.417 35.7553 95.4852 35.5968 95.5331 35.42C95.5846 35.2431 95.6012 35.0423 95.5828 34.8176L96.0415 34.8452C96.0489 35.081 96.0176 35.3094 95.9476 35.5305C95.8812 35.7516 95.7781 35.9505 95.6381 36.1274L95.5275 36.249C95.3949 36.4185 95.2272 36.553 95.0246 36.6524C94.822 36.7519 94.5825 36.8017 94.3061 36.8017ZM101.337 33.6072H99.2917V34.6683H100.894V35.1768H99.2917V36.7464H98.7003V33.0987H101.337V33.6072ZM102.295 33.5188C102.166 33.5188 102.066 33.4874 101.996 33.4248C101.93 33.3585 101.897 33.2664 101.897 33.1485C101.897 33.0306 101.93 32.9403 101.996 32.8777C102.066 32.815 102.166 32.7837 102.295 32.7837C102.42 32.7837 102.516 32.815 102.582 32.8777C102.652 32.9403 102.687 33.0306 102.687 33.1485C102.687 33.2664 102.652 33.3585 102.582 33.4248C102.516 33.4874 102.42 33.5188 102.295 33.5188ZM102.587 33.983V36.7464H101.996V33.983H102.587ZM103.513 36.7464V33.983H104.038L104.076 34.7015L103.999 34.6241C104.051 34.4657 104.124 34.3349 104.22 34.2317C104.32 34.1249 104.436 34.0475 104.568 33.9996C104.705 33.9517 104.848 33.9277 104.999 33.9277C105.195 33.9277 105.37 33.9664 105.524 34.0438C105.683 34.1175 105.808 34.2299 105.9 34.3809C105.992 34.532 106.038 34.7236 106.038 34.9557V36.7464H105.447V35.1381C105.447 34.8655 105.39 34.6775 105.276 34.5744C105.165 34.4675 105.025 34.4141 104.856 34.4141C104.734 34.4141 104.616 34.4436 104.502 34.5025C104.388 34.5578 104.292 34.6481 104.215 34.7733C104.141 34.8986 104.104 35.0663 104.104 35.2763V36.7464H103.513ZM108.532 34.9723C108.532 34.7881 108.48 34.6462 108.377 34.5467C108.278 34.4436 108.139 34.392 107.963 34.392C107.797 34.392 107.655 34.4307 107.537 34.5081C107.419 34.5854 107.332 34.7107 107.277 34.8839L106.78 34.6739C106.85 34.4491 106.986 34.2686 107.189 34.1322C107.395 33.9959 107.66 33.9277 107.985 33.9277C108.206 33.9277 108.401 33.9646 108.57 34.0383C108.74 34.1083 108.873 34.2151 108.968 34.3588C109.068 34.5025 109.118 34.6868 109.118 34.9115V36.144C109.118 36.2803 109.186 36.3485 109.322 36.3485C109.388 36.3485 109.453 36.3393 109.516 36.3208L109.482 36.7298C109.398 36.7703 109.291 36.7906 109.162 36.7906C109.044 36.7906 108.937 36.7703 108.841 36.7298C108.749 36.6856 108.675 36.6211 108.62 36.5364C108.569 36.448 108.543 36.3393 108.543 36.2103V36.1716L108.664 36.1661C108.631 36.3098 108.563 36.4295 108.46 36.5253C108.357 36.6174 108.237 36.6874 108.101 36.7353C107.964 36.7796 107.826 36.8017 107.686 36.8017C107.513 36.8017 107.356 36.774 107.216 36.7188C107.08 36.6635 106.971 36.5806 106.89 36.4701C106.813 36.3558 106.774 36.2158 106.774 36.05C106.774 35.8437 106.841 35.6742 106.973 35.5416C107.11 35.4089 107.301 35.3187 107.548 35.2708L108.62 35.0607L108.615 35.4752L107.835 35.6355C107.681 35.665 107.565 35.7074 107.487 35.7626C107.41 35.8179 107.371 35.899 107.371 36.0058C107.371 36.109 107.41 36.1919 107.487 36.2545C107.568 36.3135 107.675 36.3429 107.808 36.3429C107.9 36.3429 107.988 36.3319 108.073 36.3098C108.162 36.2877 108.241 36.2527 108.311 36.2048C108.381 36.1532 108.434 36.0887 108.471 36.0113C108.512 35.9303 108.532 35.8345 108.532 35.7239V34.9723ZM110.087 36.7464V33.983H110.612L110.65 34.7015L110.573 34.6241C110.624 34.4657 110.698 34.3349 110.794 34.2317C110.893 34.1249 111.01 34.0475 111.142 33.9996C111.278 33.9517 111.422 33.9277 111.573 33.9277C111.769 33.9277 111.944 33.9664 112.098 34.0438C112.257 34.1175 112.382 34.2299 112.474 34.3809C112.566 34.532 112.612 34.7236 112.612 34.9557V36.7464H112.021V35.1381C112.021 34.8655 111.964 34.6775 111.85 34.5744C111.739 34.4675 111.599 34.4141 111.43 34.4141C111.308 34.4141 111.19 34.4436 111.076 34.5025C110.962 34.5578 110.866 34.6481 110.788 34.7733C110.715 34.8986 110.678 35.0663 110.678 35.2763V36.7464H110.087ZM114.702 33.9277C114.923 33.9277 115.111 33.9609 115.266 34.0272C115.424 34.0899 115.557 34.1801 115.664 34.298C115.771 34.4159 115.852 34.5504 115.907 34.7015L115.349 34.9226C115.301 34.7531 115.224 34.6241 115.117 34.5357C115.014 34.4436 114.877 34.3975 114.708 34.3975C114.542 34.3975 114.4 34.4362 114.282 34.5136C114.164 34.5873 114.074 34.696 114.011 34.8397C113.952 34.9834 113.923 35.1602 113.923 35.3702C113.923 35.5766 113.954 35.7516 114.017 35.8953C114.079 36.039 114.17 36.1477 114.288 36.2214C114.406 36.295 114.546 36.3319 114.708 36.3319C114.833 36.3319 114.942 36.3116 115.034 36.2711C115.126 36.2269 115.201 36.1661 115.26 36.0887C115.323 36.0077 115.365 35.91 115.387 35.7958L115.924 35.9782C115.872 36.144 115.791 36.2895 115.68 36.4148C115.574 36.5364 115.439 36.6322 115.277 36.7022C115.115 36.7685 114.929 36.8017 114.719 36.8017C114.446 36.8017 114.205 36.7446 113.995 36.6303C113.785 36.5161 113.621 36.3522 113.503 36.1385C113.389 35.9211 113.332 35.6632 113.332 35.3647C113.332 35.0663 113.389 34.8102 113.503 34.5965C113.621 34.3791 113.783 34.2133 113.989 34.0991C114.199 33.9849 114.437 33.9277 114.702 33.9277ZM116.91 33.5188C116.781 33.5188 116.682 33.4874 116.612 33.4248C116.545 33.3585 116.512 33.2664 116.512 33.1485C116.512 33.0306 116.545 32.9403 116.612 32.8777C116.682 32.815 116.781 32.7837 116.91 32.7837C117.036 32.7837 117.131 32.815 117.198 32.8777C117.268 32.9403 117.303 33.0306 117.303 33.1485C117.303 33.2664 117.268 33.3585 117.198 33.4248C117.131 33.4874 117.036 33.5188 116.91 33.5188ZM117.203 33.983V36.7464H116.612V33.983H117.203ZM119.726 34.9723C119.726 34.7881 119.674 34.6462 119.571 34.5467C119.471 34.4436 119.333 34.392 119.156 34.392C118.991 34.392 118.849 34.4307 118.731 34.5081C118.613 34.5854 118.526 34.7107 118.471 34.8839L117.974 34.6739C118.044 34.4491 118.18 34.2686 118.383 34.1322C118.589 33.9959 118.854 33.9277 119.179 33.9277C119.4 33.9277 119.595 33.9646 119.764 34.0383C119.934 34.1083 120.066 34.2151 120.162 34.3588C120.262 34.5025 120.311 34.6868 120.311 34.9115V36.144C120.311 36.2803 120.38 36.3485 120.516 36.3485C120.582 36.3485 120.647 36.3393 120.709 36.3208L120.676 36.7298C120.592 36.7703 120.485 36.7906 120.356 36.7906C120.238 36.7906 120.131 36.7703 120.035 36.7298C119.943 36.6856 119.869 36.6211 119.814 36.5364C119.763 36.448 119.737 36.3393 119.737 36.2103V36.1716L119.858 36.1661C119.825 36.3098 119.757 36.4295 119.654 36.5253C119.551 36.6174 119.431 36.6874 119.295 36.7353C119.158 36.7796 119.02 36.8017 118.88 36.8017C118.707 36.8017 118.55 36.774 118.41 36.7188C118.274 36.6635 118.165 36.5806 118.084 36.4701C118.007 36.3558 117.968 36.2158 117.968 36.05C117.968 35.8437 118.034 35.6742 118.167 35.5416C118.303 35.4089 118.495 35.3187 118.742 35.2708L119.814 35.0607L119.809 35.4752L119.029 35.6355C118.875 35.665 118.758 35.7074 118.681 35.7626C118.604 35.8179 118.565 35.899 118.565 36.0058C118.565 36.109 118.604 36.1919 118.681 36.2545C118.762 36.3135 118.869 36.3429 119.002 36.3429C119.094 36.3429 119.182 36.3319 119.267 36.3098C119.355 36.2877 119.435 36.2527 119.505 36.2048C119.575 36.1532 119.628 36.0887 119.665 36.0113C119.705 35.9303 119.726 35.8345 119.726 35.7239V34.9723ZM121.855 32.7395V35.9727C121.855 36.109 121.879 36.2029 121.927 36.2545C121.975 36.3061 122.054 36.3319 122.165 36.3319C122.231 36.3319 122.286 36.3282 122.33 36.3208C122.378 36.3098 122.437 36.2914 122.507 36.2656L122.441 36.7077C122.378 36.7372 122.307 36.7593 122.225 36.774C122.144 36.7925 122.063 36.8017 121.982 36.8017C121.735 36.8017 121.553 36.739 121.435 36.6138C121.321 36.4848 121.264 36.2877 121.264 36.0224V32.7395H121.855ZM125.964 33.0435C126.292 33.0435 126.576 33.1061 126.815 33.2314C127.055 33.353 127.257 33.5335 127.423 33.773L127.025 34.1543C126.885 33.9406 126.727 33.7877 126.55 33.6956C126.377 33.5998 126.17 33.5519 125.931 33.5519C125.754 33.5519 125.608 33.5759 125.494 33.6238C125.38 33.6717 125.295 33.7362 125.24 33.8172C125.188 33.8946 125.163 33.983 125.163 34.0825C125.163 34.1967 125.201 34.2962 125.279 34.3809C125.36 34.4657 125.509 34.532 125.726 34.5799L126.467 34.7457C126.821 34.8231 127.071 34.941 127.218 35.0994C127.366 35.2579 127.44 35.4587 127.44 35.7018C127.44 35.9266 127.379 36.1219 127.257 36.2877C127.136 36.4535 126.966 36.5806 126.749 36.669C126.535 36.7575 126.283 36.8017 125.992 36.8017C125.734 36.8017 125.501 36.7685 125.295 36.7022C125.089 36.6359 124.908 36.5456 124.754 36.4314C124.599 36.3172 124.472 36.1864 124.372 36.039L124.781 35.63C124.859 35.759 124.956 35.875 125.074 35.9782C125.192 36.0777 125.328 36.155 125.483 36.2103C125.642 36.2656 125.817 36.2932 126.008 36.2932C126.178 36.2932 126.323 36.2729 126.445 36.2324C126.57 36.1919 126.664 36.1329 126.727 36.0556C126.793 35.9745 126.826 35.8787 126.826 35.7682C126.826 35.6613 126.789 35.5674 126.716 35.4863C126.646 35.4052 126.513 35.3426 126.318 35.2984L125.516 35.116C125.295 35.0681 125.113 34.9999 124.969 34.9115C124.825 34.8231 124.719 34.7162 124.649 34.591C124.579 34.462 124.544 34.3183 124.544 34.1599C124.544 33.9535 124.599 33.7675 124.709 33.6017C124.824 33.4322 124.988 33.2977 125.201 33.1982C125.415 33.095 125.669 33.0435 125.964 33.0435ZM129.399 36.8017C129.123 36.8017 128.88 36.7446 128.67 36.6303C128.46 36.5161 128.296 36.3522 128.178 36.1385C128.064 35.9211 128.007 35.6632 128.007 35.3647C128.007 35.0663 128.064 34.8102 128.178 34.5965C128.296 34.3791 128.458 34.2133 128.664 34.0991C128.871 33.9849 129.105 33.9277 129.366 33.9277C129.635 33.9277 129.864 33.983 130.052 34.0936C130.239 34.2041 130.383 34.3552 130.483 34.5467C130.582 34.7383 130.632 34.9557 130.632 35.1989C130.632 35.2652 130.63 35.3279 130.626 35.3868C130.623 35.4458 130.617 35.4974 130.61 35.5416H128.388V35.0884H130.35L130.057 35.1768C130.057 34.9263 129.994 34.7347 129.869 34.602C129.744 34.4657 129.573 34.3975 129.355 34.3975C129.197 34.3975 129.059 34.4344 128.941 34.5081C128.823 34.5817 128.732 34.6923 128.67 34.8397C128.607 34.9834 128.576 35.1602 128.576 35.3702C128.576 35.5766 128.609 35.7516 128.675 35.8953C128.742 36.039 128.836 36.1477 128.957 36.2214C129.079 36.295 129.222 36.3319 129.388 36.3319C129.573 36.3319 129.722 36.2969 129.836 36.2269C129.95 36.1569 130.04 36.0592 130.107 35.934L130.577 36.155C130.51 36.2877 130.42 36.4037 130.306 36.5032C130.195 36.599 130.063 36.6727 129.908 36.7243C129.753 36.7759 129.584 36.8017 129.399 36.8017ZM131.379 36.7464V33.983H131.882L131.937 34.4804C132.011 34.2999 132.119 34.1636 132.263 34.0714C132.41 33.9756 132.591 33.9277 132.805 33.9277C132.86 33.9277 132.915 33.9333 132.97 33.9443C133.026 33.9517 133.072 33.9646 133.108 33.983L133.026 34.5025C132.985 34.4878 132.939 34.4767 132.887 34.4694C132.84 34.4583 132.773 34.4528 132.688 34.4528C132.574 34.4528 132.462 34.4841 132.351 34.5467C132.241 34.6057 132.149 34.696 132.075 34.8176C132.005 34.9391 131.97 35.0939 131.97 35.2818V36.7464H131.379ZM135.485 33.983H136.104L135.005 36.7464H134.358L133.253 33.983H133.899L134.684 36.2324L135.485 33.983ZM136.907 33.5188C136.778 33.5188 136.679 33.4874 136.609 33.4248C136.542 33.3585 136.509 33.2664 136.509 33.1485C136.509 33.0306 136.542 32.9403 136.609 32.8777C136.679 32.815 136.778 32.7837 136.907 32.7837C137.032 32.7837 137.128 32.815 137.194 32.8777C137.264 32.9403 137.299 33.0306 137.299 33.1485C137.299 33.2664 137.264 33.3585 137.194 33.4248C137.128 33.4874 137.032 33.5188 136.907 33.5188ZM137.2 33.983V36.7464H136.609V33.983H137.2ZM139.319 33.9277C139.54 33.9277 139.728 33.9609 139.883 34.0272C140.041 34.0899 140.174 34.1801 140.281 34.298C140.387 34.4159 140.469 34.5504 140.524 34.7015L139.966 34.9226C139.918 34.7531 139.84 34.6241 139.733 34.5357C139.63 34.4436 139.494 34.3975 139.324 34.3975C139.159 34.3975 139.017 34.4362 138.899 34.5136C138.781 34.5873 138.691 34.696 138.628 34.8397C138.569 34.9834 138.54 35.1602 138.54 35.3702C138.54 35.5766 138.571 35.7516 138.634 35.8953C138.696 36.039 138.787 36.1477 138.904 36.2214C139.022 36.295 139.162 36.3319 139.324 36.3319C139.45 36.3319 139.558 36.3116 139.651 36.2711C139.743 36.2269 139.818 36.1661 139.877 36.0887C139.94 36.0077 139.982 35.91 140.004 35.7958L140.54 35.9782C140.489 36.144 140.408 36.2895 140.297 36.4148C140.19 36.5364 140.056 36.6322 139.894 36.7022C139.732 36.7685 139.546 36.8017 139.336 36.8017C139.063 36.8017 138.822 36.7446 138.612 36.6303C138.402 36.5161 138.238 36.3522 138.12 36.1385C138.005 35.9211 137.948 35.6632 137.948 35.3647C137.948 35.0663 138.005 34.8102 138.12 34.5965C138.238 34.3791 138.4 34.2133 138.606 34.0991C138.816 33.9849 139.054 33.9277 139.319 33.9277ZM142.444 36.8017C142.168 36.8017 141.925 36.7446 141.715 36.6303C141.505 36.5161 141.341 36.3522 141.223 36.1385C141.109 35.9211 141.052 35.6632 141.052 35.3647C141.052 35.0663 141.109 34.8102 141.223 34.5965C141.341 34.3791 141.503 34.2133 141.709 34.0991C141.916 33.9849 142.15 33.9277 142.411 33.9277C142.68 33.9277 142.909 33.983 143.097 34.0936C143.285 34.2041 143.428 34.3552 143.528 34.5467C143.627 34.7383 143.677 34.9557 143.677 35.1989C143.677 35.2652 143.675 35.3279 143.671 35.3868C143.668 35.4458 143.662 35.4974 143.655 35.5416H141.433V35.0884H143.395L143.102 35.1768C143.102 34.9263 143.04 34.7347 142.914 34.602C142.789 34.4657 142.618 34.3975 142.4 34.3975C142.242 34.3975 142.104 34.4344 141.986 34.5081C141.868 34.5817 141.778 34.6923 141.715 34.8397C141.652 34.9834 141.621 35.1602 141.621 35.3702C141.621 35.5766 141.654 35.7516 141.72 35.8953C141.787 36.039 141.881 36.1477 142.002 36.2214C142.124 36.295 142.268 36.3319 142.433 36.3319C142.618 36.3319 142.767 36.2969 142.881 36.2269C142.995 36.1569 143.086 36.0592 143.152 35.934L143.622 36.155C143.555 36.2877 143.465 36.4037 143.351 36.5032C143.24 36.599 143.108 36.6727 142.953 36.7243C142.798 36.7759 142.629 36.8017 142.444 36.8017ZM145.474 36.8017C145.197 36.8017 144.945 36.7482 144.717 36.6414C144.488 36.5345 144.308 36.3835 144.175 36.1882L144.584 35.8345C144.665 35.9855 144.781 36.1071 144.932 36.1992C145.087 36.2877 145.271 36.3319 145.485 36.3319C145.654 36.3319 145.789 36.3024 145.888 36.2435C145.988 36.1845 146.038 36.1016 146.038 35.9948C146.038 35.9248 146.014 35.864 145.966 35.8124C145.921 35.7571 145.835 35.7147 145.706 35.6853L145.126 35.5637C144.831 35.5047 144.621 35.4108 144.496 35.2818C144.37 35.1492 144.308 34.9815 144.308 34.7789C144.308 34.6278 144.352 34.4878 144.44 34.3588C144.529 34.2299 144.658 34.1267 144.827 34.0493C145 33.9683 145.207 33.9277 145.446 33.9277C145.723 33.9277 145.958 33.9775 146.154 34.077C146.349 34.1728 146.498 34.3109 146.601 34.4915L146.192 34.8341C146.122 34.6868 146.019 34.5781 145.883 34.5081C145.746 34.4344 145.605 34.3975 145.457 34.3975C145.339 34.3975 145.238 34.4123 145.153 34.4417C145.069 34.4712 145.004 34.5117 144.96 34.5633C144.916 34.6149 144.894 34.6757 144.894 34.7457C144.894 34.8194 144.921 34.8839 144.976 34.9391C145.032 34.9944 145.131 35.0368 145.275 35.0663L145.905 35.1989C146.17 35.2505 146.356 35.3389 146.463 35.4642C146.574 35.5858 146.629 35.735 146.629 35.9119C146.629 36.0887 146.583 36.2453 146.491 36.3816C146.399 36.5143 146.266 36.6174 146.093 36.6911C145.92 36.7648 145.713 36.8017 145.474 36.8017Z" fill="#FB9F28"/>
</svg>
