<svg width="908" height="430" viewBox="0 0 908 430" fill="none" xmlns="http://www.w3.org/2000/svg">
<path d="M385.482 10.0173L23.5523 371.517C10.3978 384.656 3.82054 391.226 1.92162 396.428C-2.52717 408.616 3.08724 422.182 14.848 427.661C19.868 430 29.1641 430 47.7563 430H873.75C882.355 430 886.658 430 890.163 428.952C898.229 426.54 904.539 420.229 906.952 412.163C908 408.658 908 404.355 908 395.75V34.25C908 25.6445 908 21.3418 906.952 17.8369C904.539 9.77072 898.229 3.46047 890.163 1.04818C886.658 0 882.355 0 873.75 0H409.686C405.922 0 404.04 0 402.241 0.263035C398.143 0.8622 394.258 2.46996 390.935 4.94187C389.477 6.027 388.145 7.357 385.482 10.0169L385.482 10.0173Z" fill="#FB9F28"/>
</svg>
